<?xml version="1.0" standalone="no"?>
 <!DOCTYPE svg PUBLIC "-//W3C//DTD SVG 1.1//EN" 
 "http://www.w3.org/Graphics/SVG/1.1/DTD/svg11.dtd"> 
<svg xmlns="http://www.w3.org/2000/svg" version="1.1" 
    width="29.7002cm" height="21.0007cm" viewBox="0 0 116930 82680 ">
<title>SVG Picture created as Lichttheremin-F.SilkS.svg date 2017/07/17 13:21:52 </title>
  <desc>Picture generated by PCBNEW </desc>
<g style="fill:#000000; fill-opacity:1;stroke:#000000; stroke-opacity:1;
stroke-linecap:round; stroke-linejoin:round; "
 transform="translate(0 0) scale(1 1)">
</g>
<g style="fill:#000000; fill-opacity:0.0; 
stroke:#000000; stroke-width:-0.000393701; stroke-opacity:1; 
stroke-linecap:round; stroke-linejoin:round;">
</g>
<g style="fill:#000000; fill-opacity:0.0; 
stroke:#000000; stroke-width:59.0551; stroke-opacity:1; 
stroke-linecap:round; stroke-linejoin:round;">
<path d="M22409 44703
L22428 44646
L22428 44553
L22409 44515
L22390 44496
L22353 44478
L22315 44478
L22278 44496
L22259 44515
L22240 44553
L22221 44628
L22203 44665
L22184 44684
L22146 44703
L22109 44703
L22071 44684
L22053 44665
L22034 44628
L22034 44534
L22053 44478
" />
<path d="M22428 44309
L22034 44309
L22034 44159
L22053 44121
L22071 44103
L22109 44084
L22165 44084
L22203 44103
L22221 44121
L22240 44159
L22240 44309
" />
<path d="M22428 43915
L22034 43915
" />
<path d="M22428 43690
L22203 43859
" />
<path d="M22034 43690
L22259 43915
" />
<path d="M22428 43296
L22240 43428
" />
<path d="M22428 43521
L22034 43521
L22034 43371
L22053 43334
L22071 43315
L22109 43296
L22165 43296
L22203 43315
L22221 43334
L22240 43371
L22240 43521
" />
<path d="M55971 37034
L55990 36978
L56009 36959
L56046 36940
L56103 36940
L56140 36959
L56159 36978
L56178 37015
L56178 37165
L55784 37165
L55784 37034
L55803 36996
L55821 36978
L55859 36959
L55896 36959
L55934 36978
L55953 36996
L55971 37034
L55971 37165
" />
<path d="M56178 36603
L55971 36603
L55934 36621
L55915 36659
L55915 36734
L55934 36771
" />
<path d="M56159 36603
L56178 36640
L56178 36734
L56159 36771
L56121 36790
L56084 36790
L56046 36771
L56028 36734
L56028 36640
L56009 36603
" />
<path d="M55915 36471
L55915 36321
" />
<path d="M55784 36415
L56121 36415
L56159 36396
L56178 36359
L56178 36321
" />
<path d="M56178 36190
L55784 36190
" />
<path d="M55915 36003
L56178 36003
" />
<path d="M55953 36003
L55934 35984
L55915 35946
L55915 35890
L55934 35853
L55971 35834
L56178 35834
" />
<path d="M55361 37823
L55661 37823
" />
<path d="M55511 37973
L55511 37673
" />
</g>
<g style="fill:#000000; fill-opacity:0.0; 
stroke:#000000; stroke-width:78.7402; stroke-opacity:1; 
stroke-linecap:round; stroke-linejoin:round;">
<path d="M38164 35534
L37967 35253
" />
<path d="M37827 35534
L37827 34944
L38052 34944
L38108 34972
L38136 35000
L38164 35056
L38164 35141
L38136 35197
L38108 35225
L38052 35253
L37827 35253
" />
<path d="M38642 35506
L38586 35534
L38473 35534
L38417 35506
L38389 35450
L38389 35225
L38417 35169
L38473 35141
L38586 35141
L38642 35169
L38670 35225
L38670 35281
L38389 35338
" />
<path d="M38867 35141
L39008 35534
L39148 35141
" />
<path d="M39373 35478
L39401 35506
L39373 35534
L39345 35506
L39373 35478
L39373 35534
" />
<path d="M40076 35366
L40357 35366
" />
<path d="M40020 35534
L40217 34944
L40414 35534
" />
<path d="M41229 35759
L41201 35731
L41145 35647
L41117 35591
L41089 35506
L41061 35366
L41061 35253
L41089 35113
L41117 35028
L41145 34972
L41201 34888
L41229 34859
" />
<path d="M41426 35000
L41454 34972
L41510 34944
L41651 34944
L41707 34972
L41735 35000
L41764 35056
L41764 35113
L41735 35197
L41398 35534
L41764 35534
" />
<path d="M42129 34944
L42185 34944
L42242 34972
L42270 35000
L42298 35056
L42326 35169
L42326 35309
L42298 35422
L42270 35478
L42242 35506
L42185 35534
L42129 35534
L42073 35506
L42045 35478
L42017 35422
L41989 35309
L41989 35169
L42017 35056
L42045 35000
L42073 34972
L42129 34944
" />
<path d="M42888 35534
L42551 35534
" />
<path d="M42720 35534
L42720 34944
L42663 35028
L42607 35084
L42551 35113
" />
<path d="M43085 34944
L43479 34944
L43226 35534
" />
<path d="M43704 35309
L44154 35309
" />
<path d="M44744 35534
L44407 35534
" />
<path d="M44576 35534
L44576 34944
L44519 35028
L44463 35084
L44407 35113
" />
<path d="M45026 35534
L45138 35534
L45194 35506
L45223 35478
L45279 35394
L45307 35281
L45307 35056
L45279 35000
L45251 34972
L45194 34944
L45082 34944
L45026 34972
L44998 35000
L44969 35056
L44969 35197
L44998 35253
L45026 35281
L45082 35309
L45194 35309
L45251 35281
L45279 35253
L45307 35197
" />
<path d="M45504 35759
L45532 35731
L45588 35647
L45616 35591
L45644 35506
L45672 35366
L45672 35253
L45644 35113
L45616 35028
L45588 34972
L45532 34888
L45504 34859
" />
<path d="M36645 36105
L36645 36583
L36617 36640
L36589 36668
L36533 36696
L36449 36696
L36392 36668
" />
<path d="M36645 36471
L36589 36499
L36477 36499
L36420 36471
L36392 36443
L36364 36386
L36364 36218
L36392 36161
L36420 36133
L36477 36105
L36589 36105
L36645 36133
" />
<path d="M36927 36499
L36927 36105
" />
<path d="M36927 35908
L36899 35937
L36927 35965
L36955 35937
L36927 35908
L36927 35965
" />
<path d="M37124 36105
L37348 36105
" />
<path d="M37208 35908
L37208 36415
L37236 36471
L37292 36499
L37348 36499
" />
<path d="M37545 36499
L37545 35908
" />
<path d="M37798 36499
L37798 36190
L37770 36133
L37714 36105
L37630 36105
L37573 36133
L37545 36161
" />
<path d="M38333 36105
L38333 36499
" />
<path d="M38080 36105
L38080 36415
L38108 36471
L38164 36499
L38248 36499
L38305 36471
L38333 36443
" />
<path d="M38614 36499
L38614 35908
" />
<path d="M38614 36133
L38670 36105
L38783 36105
L38839 36133
L38867 36161
L38895 36218
L38895 36386
L38867 36443
L38839 36471
L38783 36499
L38670 36499
L38614 36471
" />
<path d="M39148 36443
L39176 36471
L39148 36499
L39120 36471
L39148 36443
L39148 36499
" />
<path d="M39683 36471
L39626 36499
L39514 36499
L39458 36471
L39429 36443
L39401 36386
L39401 36218
L39429 36161
L39458 36133
L39514 36105
L39626 36105
L39683 36133
" />
<path d="M40020 36499
L39964 36471
L39936 36443
L39908 36386
L39908 36218
L39936 36161
L39964 36133
L40020 36105
L40104 36105
L40161 36133
L40189 36161
L40217 36218
L40217 36386
L40189 36443
L40161 36471
L40104 36499
L40020 36499
" />
<path d="M40470 36499
L40470 36105
" />
<path d="M40470 36161
L40498 36133
L40554 36105
L40639 36105
L40695 36133
L40723 36190
L40723 36499
" />
<path d="M40723 36190
L40751 36133
L40807 36105
L40892 36105
L40948 36133
L40976 36190
L40976 36499
" />
<path d="M41679 35880
L41173 36640
" />
<path d="M41876 35908
L41876 36386
L41904 36443
L41932 36471
L41989 36499
L42101 36499
L42157 36471
L42185 36443
L42214 36386
L42214 35908
" />
<path d="M42495 36190
L42692 36190
" />
<path d="M42776 36499
L42495 36499
L42495 35908
L42776 35908
" />
<path d="M43029 36499
L43029 35908
L43254 35908
L43310 35937
L43338 35965
L43366 36021
L43366 36105
L43338 36161
L43310 36190
L43254 36218
L43029 36218
" />
<path d="M43620 36499
L43620 36105
" />
<path d="M43620 36218
L43648 36161
L43676 36133
L43732 36105
L43788 36105
" />
<path d="M44070 36499
L44013 36471
L43985 36443
L43957 36386
L43957 36218
L43985 36161
L44013 36133
L44070 36105
L44154 36105
L44210 36133
L44238 36161
L44266 36218
L44266 36386
L44238 36443
L44210 36471
L44154 36499
L44070 36499
" />
<path d="M44941 35880
L44435 36640
" />
<path d="M45419 36499
L45138 36499
L45138 35908
" />
<path d="M45616 36499
L45616 36105
" />
<path d="M45616 35908
L45588 35937
L45616 35965
L45644 35937
L45616 35908
L45616 35965
" />
<path d="M45813 35908
L46151 35908
" />
<path d="M45982 36499
L45982 35908
" />
<path d="M46347 36499
L46347 35908
" />
<path d="M46600 36499
L46600 36190
L46572 36133
L46516 36105
L46432 36105
L46375 36133
L46347 36161
" />
<path d="M47107 36471
L47050 36499
L46938 36499
L46882 36471
L46854 36415
L46854 36190
L46882 36133
L46938 36105
L47050 36105
L47107 36133
L47135 36190
L47135 36246
L46854 36302
" />
</g>
<g style="fill:#000000; fill-opacity:0.0; 
stroke:#000000; stroke-width:157.48; stroke-opacity:1; 
stroke-linecap:round; stroke-linejoin:round;">
<path d="M36491 34284
L35928 34284
L35928 33103
" />
<path d="M36884 34284
L36884 33496
" />
<path d="M36884 33103
L36828 33159
L36884 33215
L36941 33159
L36884 33103
L36884 33215
" />
<path d="M37953 34228
L37841 34284
L37616 34284
L37503 34228
L37447 34171
L37391 34059
L37391 33721
L37447 33609
L37503 33553
L37616 33496
L37841 33496
L37953 33553
" />
<path d="M38459 34284
L38459 33103
" />
<path d="M38965 34284
L38965 33665
L38909 33553
L38797 33496
L38628 33496
L38516 33553
L38459 33609
" />
<path d="M39359 33496
L39809 33496
" />
<path d="M39528 33103
L39528 34115
L39584 34228
L39697 34284
L39809 34284
" />
<path d="M40034 33103
L40709 33103
" />
<path d="M40372 34284
L40372 33103
" />
<path d="M41103 34284
L41103 33103
" />
<path d="M41609 34284
L41609 33665
L41553 33553
L41440 33496
L41271 33496
L41159 33553
L41103 33609
" />
<path d="M42621 34228
L42509 34284
L42284 34284
L42171 34228
L42115 34115
L42115 33665
L42171 33553
L42284 33496
L42509 33496
L42621 33553
L42678 33665
L42678 33778
L42115 33890
" />
<path d="M43184 34284
L43184 33496
" />
<path d="M43184 33721
L43240 33609
L43296 33553
L43409 33496
L43521 33496
" />
<path d="M44365 34228
L44252 34284
L44027 34284
L43915 34228
L43859 34115
L43859 33665
L43915 33553
L44027 33496
L44252 33496
L44365 33553
L44421 33665
L44421 33778
L43859 33890
" />
<path d="M44927 34284
L44927 33496
" />
<path d="M44927 33609
L44983 33553
L45096 33496
L45265 33496
L45377 33553
L45433 33665
L45433 34284
" />
<path d="M45433 33665
L45490 33553
L45602 33496
L45771 33496
L45883 33553
L45940 33665
L45940 34284
" />
<path d="M46502 34284
L46502 33496
" />
<path d="M46502 33103
L46446 33159
L46502 33215
L46558 33159
L46502 33103
L46502 33215
" />
<path d="M47064 33496
L47064 34284
" />
<path d="M47064 33609
L47121 33553
L47233 33496
L47402 33496
L47514 33553
L47571 33665
L47571 34284
" />
</g>
<g style="fill:#000000; fill-opacity:0.0; 
stroke:#000000; stroke-width:150; stroke-opacity:1; 
stroke-linecap:round; stroke-linejoin:round;">
<path d="M41000 39500
L40000 39500
" />
<path d="M40000 39500
L40000 42500
" />
<path d="M40000 42500
L41000 42500
" />
<path d="M41000 42500
L41000 39500
" />
</g>
<g style="fill:#000000; fill-opacity:0.0; 
stroke:#000000; stroke-width:120; stroke-opacity:1; 
stroke-linecap:round; stroke-linejoin:round;">
<path d="M47078 43480
L47078 41500
" />
<path d="M47078 41500
L47893 41500
" />
<path d="M47921 41500
L47921 43500
" />
<path d="M47893 43500
L47078 43500
" />
</g>
<g style="fill:#000000; fill-opacity:0.0; 
stroke:#000000; stroke-width:150; stroke-opacity:1; 
stroke-linecap:round; stroke-linejoin:round;">
<path d="M48000 45500
L48000 44500
" />
<path d="M48000 44500
L45000 44500
" />
<path d="M45000 44500
L45000 45500
" />
<path d="M45000 45500
L48000 45500
" />
</g>
<g style="fill:#000000; fill-opacity:0.0; 
stroke:#000000; stroke-width:118.11; stroke-opacity:1; 
stroke-linecap:round; stroke-linejoin:round;">
<path d="M34893 40334
L34893 44665
" />
<path d="M32137 44665
L32137 40334
" />
<path d="M34893 40334
L32137 40334
" />
<path d="M34893 44665
L32137 44665
" />
<path d="M30893 40334
L30893 44665
" />
<path d="M28137 44665
L28137 40334
" />
<path d="M30893 40334
L28137 40334
" />
<path d="M30893 44665
L28137 44665
" />
</g>
<g style="fill:#000000; fill-opacity:0.0; 
stroke:#000000; stroke-width:150; stroke-opacity:1; 
stroke-linecap:round; stroke-linejoin:round;">
<path d="M50606 38831
L50803 38831
" />
<path d="M50606 38831
L50606 38634
" />
<path d="M50409 38831
L50606 38831
" />
<path d="M50606 38831
L50606 38988
" />
<path d="M50606 38988
L50606 39028
" />
<circle cx="51000" cy="39500" r="1240" /> 
<path d="M51000 43677
L51000 43736
" />
<path d="M51000 43343
L51000 43264
" />
<path d="M51000 43677
L50705 43677
" />
<path d="M51000 43677
L51276 43677
" />
<path d="M51000 43677
L51276 43343
" />
<path d="M51276 43343
L50724 43343
" />
<path d="M50724 43343
L51000 43677
" />
</g>
<g style="fill:#000000; fill-opacity:0.0; 
stroke:#000000; stroke-width:59.0551; stroke-opacity:1; 
stroke-linecap:round; stroke-linejoin:round;">
<path d="M51106.3 35606.3 A556.777 556.777 0.0 0 0 51106.3 36393.7 " />
<path d="M51893.7 36393.7 A556.777 556.777 0.0 0 0 51893.7 35606.3 " />
</g>
<g style="fill:#000000; fill-opacity:0.0; 
stroke:#000000; stroke-width:100; stroke-opacity:1; 
stroke-linecap:round; stroke-linejoin:round;">
<path d="M51510 34691
L51510 35071
" />
<path d="M51700 34891
L51320 34891
" />
</g>
<g style="fill:#000000; fill-opacity:0.0; 
stroke:#000000; stroke-width:120; stroke-opacity:1; 
stroke-linecap:round; stroke-linejoin:round;">
<path d="M23000 44500
L23000 43500
" />
<path d="M23000 43500
L25000 43500
" />
<path d="M25000 43500
L25000 44500
" />
<path d="M25000 44500
L23000 44500
" />
</g>
<g style="fill:#000000; fill-opacity:0.0; 
stroke:#000000; stroke-width:118.11; stroke-opacity:1; 
stroke-linecap:round; stroke-linejoin:round;">
<path d="M26096 40295
L26096 39704
" />
<path d="M24423 41279
L25112 41279
" />
<path d="M23340 41279
L23832 41279
" />
<path d="M24423 38720
L25112 38720
" />
<path d="M23340 38720
L23832 38720
" />
<path d="M22159 41279
L21372 41279
" />
<path d="M21372 41279
L21372 38720
" />
<path d="M21372 38720
L22159 38720
" />
</g>
<g style="fill:#000000; fill-opacity:0.0; 
stroke:#000000; stroke-width:120; stroke-opacity:1; 
stroke-linecap:round; stroke-linejoin:round;">
<path d="M55000 37500
L54000 37500
" />
<path d="M54000 37500
L54000 35500
" />
<path d="M54000 35500
L55000 35500
" />
<path d="M55000 35500
L55000 37500
" />
</g>
<g style="fill:#000000; fill-opacity:0.0; 
stroke:#000000; stroke-width:150; stroke-opacity:1; 
stroke-linecap:round; stroke-linejoin:round;">
<path d="M54230 44067
L54506 44067
" />
<path d="M54506 44067
L54506 44165
" />
<path d="M54506 44854
L54506 44933
" />
<path d="M54506 44933
L54230 44933
" />
</g>
<g style="fill:#000000; fill-opacity:0.0; 
stroke:#000000; stroke-width:80; stroke-opacity:1; 
stroke-linecap:round; stroke-linejoin:round;">
<path d="M40607 44213
L41393 44213
" />
<path d="M41393 45787
L40607 45787
" />
<path d="M40606.2 44212.8 A566.591 566.591 0.0 0 0 40095 44646 " />
<path d="M41393.8 45787.2 A566.591 566.591 0.0 0 0 41905 45354 " />
<path d="M41904.6 44645.3 A566.344 566.344 0.0 0 0 41393 44213 " />
<path d="M40095.4 45354.7 A566.344 566.344 0.0 0 0 40607 45787 " />
</g>
<g style="fill:#000000; fill-opacity:0.0; 
stroke:#000000; stroke-width:59.0551; stroke-opacity:1; 
stroke-linecap:round; stroke-linejoin:round;">
<path d="M38000 43000
L38000 43500
" />
<path d="M38000 40500
L38000 41000
" />
<path d="M38500 43000
L38500 41000
" />
<path d="M38500 41000
L37500 41000
" />
<path d="M37500 41000
L37500 43000
" />
<path d="M38500 43000
L37500 43000
" />
</g>
<g style="fill:#000000; fill-opacity:0.0; 
stroke:#000000; stroke-width:150; stroke-opacity:1; 
stroke-linecap:round; stroke-linejoin:round;">
<path d="M52300 42500
L52300 42900
" />
<path d="M52300 42500
L52300 42100
" />
<path d="M53200 42500
L53200 42900
" />
<path d="M53200 42500
L53200 42100
" />
</g>
<g style="fill:#000000; fill-opacity:0.0; 
stroke:#000000; stroke-width:59.0551; stroke-opacity:1; 
stroke-linecap:round; stroke-linejoin:round;">
<path d="M49000 36000
L49000 36500
" />
<path d="M49000 33500
L49000 34000
" />
<path d="M49500 36000
L49500 34000
" />
<path d="M49500 34000
L48500 34000
" />
<path d="M48500 34000
L48500 36000
" />
<path d="M49500 36000
L48500 36000
" />
</g>
<g style="fill:#000000; fill-opacity:0.0; 
stroke:#000000; stroke-width:118.11; stroke-opacity:1; 
stroke-linecap:round; stroke-linejoin:round;">
<path d="M54035 42421
L56200 42421
" />
<path d="M54035 38287
L56200 38287
" />
<path d="M56200 38287
L56200 42421
" />
<path d="M54035 42421
L54035 38287
" />
</g>
<g style="fill:#000000; fill-opacity:0.0; 
stroke:#000000; stroke-width:100; stroke-opacity:1; 
stroke-linecap:round; stroke-linejoin:round;">
<path d="M44500 39500
L44500 40000
" />
<path d="M44500 40000
L43500 40000
" />
<path d="M43500 40000
L43500 39500
" />
<path d="M45000 39500
L45000 43500
" />
<path d="M45000 43500
L43000 43500
" />
<path d="M43000 43500
L43000 39500
" />
<path d="M43000 39500
L45000 39500
" />
</g>
<g style="fill:#000000; fill-opacity:0.0; 
stroke:#000000; stroke-width:118.11; stroke-opacity:1; 
stroke-linecap:round; stroke-linejoin:round;">
<path d="M29137 35956
L29137 38909
" />
<path d="M29137 32807
L29137 34381
" />
<path d="M33862 35956
L33862 38909
" />
<path d="M29137 32807
L33862 32807
" />
<path d="M33862 32807
L33862 34381
" />
<circle cx="31500" cy="35169.3" r="709.754" /> 
<path d="M31500 38909
L29137 38909
" />
<path d="M31500 38909
L33862 38909
" />
</g>
<g style="fill:#000000; fill-opacity:1.0; 
stroke:#000000; stroke-width:1; stroke-opacity:1; 
stroke-linecap:round; stroke-linejoin:round;">
<polyline style="fill-rule:evenodd;"
points="34457,46869
34457,46889
34457,46905
34457,46917
34457,46927
34456,46934
34456,46939
34455,46943
34454,46945
34453,46946
34453,46947
34449,46948
34441,46951
34428,46953
34411,46957
34390,46961
34364,46966
34335,46972
34332,46972
34304,46978
34281,46982
34262,46986
34247,46989
34235,46991
34225,46994
34219,46995
34214,46997
34211,46998
34210,46999
34208,47002
34205,47010
34200,47021
34194,47034
34188,47050
34181,47067
34173,47085
34166,47104
34158,47122
34152,47139
34146,47155
34140,47169
34137,47180
34134,47187
34133,47191
34135,47195
34139,47203
34146,47215
34157,47231
34170,47250
34182,47268
34194,47285
34206,47303
34218,47320
34229,47336
34238,47349
34245,47360
34248,47364
34257,47378
34263,47389
34266,47396
34266,47397
34265,47399
34264,47402
34261,47406
34257,47411
34251,47418
34242,47427
34232,47438
34219,47451
34202,47467
34183,47487
34177,47493
34159,47510
34143,47526
34128,47541
34115,47554
34103,47565
34094,47573
34088,47579
34085,47582
34085,47582
34083,47582
34081,47581
34078,47580
34073,47577
34067,47573
34058,47568
34047,47560
34033,47550
34015,47538
34013,47537
33987,47519
33965,47504
33946,47491
33931,47480
33918,47472
33907,47465
33899,47459
33893,47455
33888,47453
33885,47451
33883,47450
33881,47450
33880,47450
33877,47451
33869,47454
33859,47459
33847,47465
33834,47472
33832,47473
33818,47480
33806,47486
33796,47491
33788,47495
33784,47496
33784,47496
33779,47494
33778,47493
33777,47490
33773,47483
33769,47473
33763,47459
33757,47444
33749,47426
33741,47407
33741,47405
33732,47385
33723,47362
33712,47335
33700,47307
33688,47278
33676,47249
33664,47221
33655,47199
33643,47169
33633,47144
33624,47122
33617,47105
33612,47091
33609,47082
33607,47075
33607,47072
33610,47068
33616,47062
33622,47058
33639,47046
33657,47033
33673,47020
33687,47008
33697,46998
33718,46972
33736,46942
33751,46910
33760,46883
33762,46873
33764,46864
33765,46855
33766,46845
33766,46832
33766,46819
33766,46803
33766,46790
33765,46780
33764,46771
33762,46763
33761,46756
33749,46722
33734,46690
33716,46661
33695,46638
33668,46612
33639,46591
33608,46575
33575,46563
33541,46556
33505,46554
33502,46554
33466,46556
33433,46562
33400,46573
33370,46589
33341,46609
33317,46631
33293,46657
33274,46684
33259,46713
33248,46744
33243,46760
33239,46786
33238,46815
33239,46845
33244,46874
33251,46902
33254,46909
33266,46937
33281,46963
33298,46987
33319,47009
33344,47031
33374,47052
33383,47058
33391,47064
33397,47069
33398,47072
33398,47076
33396,47082
33392,47092
33387,47106
33380,47123
33372,47145
33361,47171
33350,47199
33338,47226
33327,47254
33315,47284
33303,47313
33291,47340
33280,47366
33271,47389
33264,47405
33256,47425
33249,47442
33242,47458
33236,47472
33232,47483
33229,47490
33227,47493
33227,47493
33223,47496
33221,47496
33218,47495
33211,47492
33201,47487
33189,47481
33176,47474
33173,47473
33160,47466
33147,47459
33137,47454
33129,47451
33125,47450
33124,47450
33123,47450
33121,47450
33118,47452
33114,47454
33109,47457
33102,47462
33093,47468
33081,47476
33067,47485
33050,47497
33029,47511
33005,47527
32992,47537
32974,47549
32959,47559
32948,47567
32939,47573
32932,47577
32928,47579
32925,47581
32922,47582
32921,47582
32920,47582
32918,47580
32913,47576
32904,47568
32894,47558
32881,47545
32867,47531
32851,47515
32834,47498
32828,47493
32808,47473
32791,47456
32777,47442
32766,47430
32757,47421
32750,47413
32745,47407
32742,47403
32740,47400
32739,47398
32739,47397
32740,47394
32742,47389
32747,47382
32753,47372
32761,47359
32772,47342
32785,47323
32801,47300
32805,47294
32823,47268
32838,47245
32850,47227
32860,47213
32866,47202
32870,47195
32872,47191
32872,47191
32871,47187
32868,47180
32864,47170
32859,47156
32854,47141
32847,47124
32840,47106
32833,47088
32826,47070
32819,47053
32813,47038
32808,47024
32803,47014
32800,47007
32799,47005
32795,46999
32791,46996
32788,46995
32780,46993
32769,46991
32755,46988
32738,46985
32719,46981
32699,46977
32669,46972
32644,46967
32622,46963
32605,46960
32591,46957
32579,46955
32571,46953
32564,46951
32560,46950
32556,46949
32554,46948
32553,46947
32552,46947
32551,46946
32550,46944
32550,46941
32549,46937
32549,46931
32548,46922
32548,46911
32548,46897
32548,46879
32548,46857
32548,46831
32548,46816
32548,46787
32548,46763
32548,46743
32548,46727
32548,46714
32549,46704
32549,46697
32550,46692
32550,46688
32551,46687
32551,46686
32554,46685
32561,46684
32572,46681
32586,46678
32603,46675
32621,46671
32642,46667
32663,46663
32684,46659
32706,46655
32726,46651
32745,46648
32763,46645
32778,46642
32785,46641
32793,46639
32799,46636
32800,46635
32802,46631
32806,46624
32811,46613
32817,46600
32824,46585
32831,46568
32839,46550
32847,46532
32854,46515
32861,46498
32867,46483
32872,46470
32876,46460
32878,46453
32878,46450
32877,46447
32873,46440
32866,46430
32858,46418
32848,46402
32837,46385
32824,46367
32810,46347
32808,46344
32792,46319
32778,46299
32766,46282
32757,46268
32750,46257
32745,46248
32741,46242
32739,46238
32739,46236
32739,46234
32741,46231
32743,46228
32747,46223
32753,46216
32760,46208
32770,46198
32783,46185
32798,46170
32816,46151
32826,46142
32843,46125
32859,46109
32874,46094
32887,46081
32899,46070
32908,46062
32914,46056
32918,46054
32918,46054
32925,46054
32929,46055
32932,46057
32939,46061
32948,46068
32961,46076
32976,46086
32993,46098
33012,46111
33032,46124
33035,46126
33061,46145
33084,46160
33103,46172
33118,46182
33130,46189
33137,46194
33141,46195
33142,46195
33146,46194
33154,46192
33165,46188
33176,46184
33179,46183
33193,46177
33209,46170
33227,46163
33243,46156
33245,46156
33259,46150
33272,46144
33285,46139
33294,46136
33297,46135
33306,46131
33313,46127
33318,46123
33319,46121
33321,46117
33322,46112
33324,46103
33327,46092
33330,46078
33333,46060
33337,46038
33342,46012
33345,45996
33350,45972
33354,45950
33358,45929
33361,45911
33364,45895
33367,45883
33369,45874
33370,45870
33370,45869
33372,45864
33502,45864
33633,45864
33635,45869
33636,45873
33638,45881
33640,45892
33643,45907
33646,45925
33650,45946
33654,45968
33659,45991
33660,45995
33665,46027
33671,46053
33675,46076
33679,46093
33682,46107
33684,46116
33686,46121
33686,46121
33690,46125
33698,46130
33708,46134
33710,46135
33721,46140
33736,46146
33754,46153
33775,46162
33798,46171
33822,46181
33832,46185
33843,46189
33853,46193
33860,46195
33863,46195
33868,46194
33877,46189
33889,46182
33905,46171
33910,46168
33943,46145
33973,46125
33998,46107
34020,46092
34038,46080
34052,46070
34063,46063
34070,46059
34073,46056
34081,46053
34087,46054
34090,46056
34096,46061
34105,46069
34116,46080
34130,46093
34145,46108
34162,46125
34180,46142
34199,46162
34216,46178
34229,46192
34240,46203
34248,46212
34255,46219
34259,46224
34262,46228
34264,46231
34265,46234
34266,46236
34265,46237
34264,46241
34261,46248
34255,46257
34246,46270
34236,46287
34222,46306
34206,46330
34195,46346
34181,46366
34169,46385
34157,46403
34147,46418
34139,46431
34132,46441
34128,46448
34126,46452
34126,46452
34127,46456
34130,46463
34134,46474
34139,46487
34146,46502
34153,46519
34160,46536
34168,46554
34175,46572
34183,46588
34189,46603
34195,46616
34200,46626
34203,46632
34205,46635
34210,46638
34217,46640
34220,46641
34224,46642
34233,46643
34246,46646
34261,46648
34280,46652
34301,46656
34323,46660
34341,46663
34368,46668
34391,46672
34410,46676
34425,46679
34436,46682
34444,46684
34450,46686
34453,46687
34454,46688
34455,46690
34455,46694
34456,46701
34456,46710
34457,46723
34457,46739
34457,46760
34457,46784
34457,46813
34457,46818
34457,46846
34457,46869
34457,46869
" /> 
<polyline style="fill-rule:evenodd;"
points="31075,47151
31021,47151
31021,47100
31021,46752
31021,46405
29500,46405
27979,46405
27979,46752
27979,47100
29500,47100
31021,47100
31021,47151
29501,47151
27927,47151
27927,46751
27927,46352
29501,46352
31075,46352
31075,46751
31075,47151
31075,47151
" /> 
<polyline style="fill-rule:evenodd;"
points="28484,47051
28482,47051
28478,47051
28472,47051
28464,47051
28454,47051
28442,47051
28429,47051
28415,47051
28411,47051
28338,47051
28325,47040
28299,47016
28276,46991
28256,46965
28238,46938
28223,46910
28211,46882
28201,46852
28194,46821
28190,46790
28188,46757
28188,46754
28189,46721
28193,46689
28200,46658
28209,46629
28221,46600
28235,46571
28253,46544
28266,46525
28270,46520
28276,46513
28283,46505
28291,46497
28299,46488
28308,46480
28315,46472
28322,46465
28328,46460
28330,46458
28337,46453
28409,46453
28482,46454
28471,46458
28461,46462
28449,46468
28437,46474
28425,46481
28414,46487
28410,46490
28391,46504
28372,46520
28353,46537
28336,46556
28320,46576
28307,46595
28305,46599
28300,46607
28294,46618
28289,46629
28284,46640
28280,46650
28278,46656
28270,46683
28265,46711
28262,46739
28262,46767
28265,46795
28270,46823
28278,46849
28288,46875
28301,46900
28301,46900
28315,46922
28332,46943
28350,46963
28370,46983
28391,47000
28414,47016
28414,47017
28423,47022
28432,47027
28443,47033
28453,47038
28463,47042
28471,47046
28475,47047
28479,47049
28483,47050
28484,47051
28484,47051
" /> 
<polyline style="fill-rule:evenodd;"
points="29005,46762
29004,46777
29004,46791
29003,46802
29002,46808
28996,46839
28988,46869
28978,46898
28965,46925
28950,46951
28932,46976
28912,47001
28889,47024
28866,47045
28858,47051
28785,47051
28770,47051
28757,47051
28745,47051
28734,47051
28725,47051
28718,47051
28714,47051
28711,47051
28711,47051
28712,47050
28716,47049
28719,47048
28723,47046
28730,47043
28738,47040
28746,47036
28755,47032
28762,47028
28768,47024
28772,47023
28792,47009
28810,46996
28827,46981
28845,46965
28846,46964
28860,46948
28873,46933
28884,46918
28894,46902
28902,46887
28912,46864
28920,46838
28926,46812
28930,46785
28932,46758
28931,46730
28928,46703
28923,46676
28916,46653
28912,46643
28907,46631
28901,46618
28895,46606
28889,46594
28883,46586
28866,46562
28846,46540
28825,46519
28802,46500
28777,46484
28752,46470
28732,46461
28726,46458
28721,46456
28717,46455
28716,46454
28717,46454
28721,46453
28727,46453
28735,46453
28745,46453
28756,46453
28769,46453
28783,46453
28787,46453
28858,46453
28868,46461
28875,46467
28884,46475
28893,46484
28902,46493
28911,46503
28919,46511
28925,46519
28944,46545
28961,46572
28975,46600
28986,46629
28995,46660
29001,46692
29001,46694
29003,46704
29004,46717
29004,46732
29005,46747
29005,46762
29005,46762
" /> 
<polyline style="fill-rule:evenodd;"
points="30320,46811
30320,46820
30320,46826
30320,46830
30319,46833
30318,46835
30318,46837
30318,46839
30318,46841
30317,46841
30316,46842
30316,46843
30316,46845
30316,46845
30315,46846
30315,46847
30315,46849
30314,46850
30314,46851
30314,46852
30314,46853
30313,46854
30312,46855
30312,46855
30312,46857
30312,46857
30311,46857
30311,46858
30311,46859
30310,46859
30309,46860
30309,46861
30309,46862
30308,46864
30306,46865
30307,46865
30307,46866
30306,46867
30304,46868
30304,46869
30303,46871
30300,46873
30297,46877
30294,46880
30291,46883
30289,46884
30288,46884
30287,46885
30286,46886
30285,46888
30285,46887
30284,46887
30283,46888
30281,46890
30280,46890
30279,46890
30279,46891
30278,46892
30277,46891
30276,46892
30276,46892
30275,46893
30275,46893
30273,46893
30273,46894
30272,46895
30272,46894
30270,46894
30270,46895
30270,46896
30269,46896
30267,46896
30267,46896
30265,46897
30265,46897
30263,46897
30263,46898
30262,46899
30261,46899
30259,46899
30259,46899
30258,46900
30257,46900
30255,46900
30254,46901
30252,46901
30252,46901
30250,46901
30248,46902
30246,46903
30244,46903
30242,46903
30242,46904
30241,46905
30239,46904
30236,46904
30234,46905
30234,46905
30233,46905
30231,46906
30228,46906
30223,46906
30217,46906
30209,46906
30198,46907
30195,46907
30186,46907
30178,46907
30171,46907
30167,46906
30164,46906
30164,46906
30161,46905
30158,46906
30154,46906
30152,46905
30149,46904
30147,46904
30143,46904
30142,46904
30139,46903
30137,46903
30134,46903
30133,46902
30131,46901
30130,46901
30127,46901
30126,46901
30124,46900
30123,46900
30120,46900
30119,46899
30117,46898
30115,46899
30113,46899
30113,46898
30111,46897
30110,46897
30107,46897
30107,46896
30106,46895
30104,46896
30102,46896
30101,46895
30100,46894
30099,46894
30097,46894
30096,46894
30094,46893
30093,46893
30092,46893
30091,46892
30090,46891
30089,46891
30087,46891
30086,46891
30084,46890
30084,46890
30082,46889
30082,46889
30080,46889
30080,46889
30078,46888
30078,46888
30076,46887
30075,46887
30075,46886
30074,46882
30074,46877
30073,46870
30073,46862
30073,46853
30073,46845
30073,46837
30073,46831
30073,46826
30074,46823
30074,46822
30075,46821
30076,46822
30076,46823
30077,46823
30078,46823
30078,46824
30079,46825
30080,46825
30081,46825
30081,46825
30082,46826
30083,46826
30084,46826
30084,46827
30085,46828
30086,46827
30087,46828
30087,46828
30088,46829
30089,46829
30091,46829
30091,46830
30092,46831
30093,46830
30094,46830
30094,46831
30095,46832
30095,46832
30097,46832
30098,46832
30099,46833
30100,46833
30101,46833
30101,46834
30102,46835
30103,46835
30104,46835
30105,46835
30106,46836
30107,46836
30108,46836
30108,46837
30109,46838
30110,46838
30112,46838
30113,46838
30114,46839
30115,46839
30117,46839
30117,46839
30118,46840
30119,46840
30121,46840
30121,46841
30122,46842
30123,46842
30125,46842
30125,46842
30126,46843
30127,46843
30130,46843
30130,46844
30132,46845
30133,46844
30135,46844
30135,46845
30136,46846
30138,46846
30141,46846
30142,46847
30144,46848
30145,46847
30148,46847
30149,46848
30151,46849
30152,46849
30156,46849
30157,46849
30158,46850
30160,46850
30163,46850
30167,46851
30173,46851
30182,46851
30185,46851
30192,46851
30197,46851
30201,46851
30203,46851
30203,46850
30205,46850
30207,46850
30210,46850
30211,46849
30213,46848
30214,46849
30216,46849
30216,46848
30217,46847
30218,46847
30220,46847
30221,46847
30221,46845
30222,46845
30224,46845
30228,46843
30230,46841
30232,46840
30231,46841
30231,46841
30231,46842
30233,46840
30234,46840
30236,46837
30237,46835
30237,46835
30237,46834
30238,46833
30240,46832
30240,46830
30239,46828
30240,46828
30241,46827
30241,46824
30241,46819
30241,46814
30241,46811
30240,46810
30240,46809
30240,46808
30240,46807
30239,46807
30238,46806
30238,46806
30238,46804
30237,46803
30235,46802
30236,46802
30237,46802
30236,46800
30236,46800
30233,46798
30232,46798
30231,46797
30230,46796
30229,46795
30228,46795
30226,46795
30226,46794
30225,46793
30225,46793
30224,46793
30223,46793
30222,46792
30221,46792
30219,46792
30219,46791
30218,46790
30217,46791
30215,46791
30215,46790
30214,46789
30213,46789
30211,46789
30211,46788
30210,46787
30209,46787
30206,46787
30206,46787
30204,46786
30202,46786
30200,46786
30199,46786
30198,46785
30197,46785
30194,46785
30193,46784
30191,46783
30189,46783
30187,46784
30186,46783
30185,46782
30184,46782
30181,46782
30180,46781
30178,46780
30177,46781
30174,46781
30173,46780
30171,46779
30170,46779
30167,46779
30166,46778
30163,46777
30162,46778
30160,46778
30159,46777
30156,46776
30155,46776
30153,46776
30153,46776
30151,46775
30149,46775
30147,46775
30147,46774
30146,46773
30145,46773
30142,46773
30142,46773
30140,46772
30139,46772
30137,46772
30137,46772
30136,46771
30135,46771
30133,46771
30132,46770
30132,46769
30131,46769
30130,46769
30130,46768
30129,46767
30128,46768
30126,46768
30125,46767
30124,46766
30124,46766
30122,46766
30122,46766
30120,46765
30120,46765
30118,46765
30118,46764
30117,46763
30117,46764
30116,46763
30115,46763
30115,46762
30114,46762
30113,46762
30113,46761
30112,46760
30111,46761
30110,46760
30109,46759
30108,46758
30107,46758
30106,46758
30105,46757
30105,46756
30104,46756
30102,46756
30101,46754
30100,46752
30099,46752
30097,46751
30094,46749
30091,46745
30090,46744
30086,46741
30084,46739
30084,46738
30084,46738
30085,46738
30083,46737
30081,46734
30081,46733
30080,46732
30080,46732
30079,46731
30079,46730
30079,46729
30078,46729
30078,46728
30078,46727
30078,46726
30077,46726
30076,46725
30076,46724
30076,46723
30076,46723
30075,46722
30075,46721
30075,46719
30074,46718
30073,46716
30073,46716
30073,46714
30073,46714
30072,46712
30072,46711
30072,46708
30072,46707
30071,46705
30071,46701
30071,46696
30071,46689
30071,46683
30071,46678
30071,46674
30072,46672
30072,46672
30072,46671
30072,46669
30072,46666
30073,46666
30073,46664
30073,46663
30073,46661
30074,46660
30075,46659
30075,46658
30075,46656
30076,46656
30076,46655
30076,46654
30076,46652
30077,46652
30078,46651
30078,46651
30078,46649
30078,46649
30079,46648
30079,46648
30079,46646
30080,46646
30081,46645
30081,46645
30081,46643
30082,46643
30084,46642
30084,46641
30084,46639
30085,46639
30087,46637
30087,46637
30087,46635
30090,46633
30093,46629
30096,46626
30099,46623
30101,46622
30102,46621
30103,46620
30105,46619
30106,46617
30106,46618
30106,46619
30107,46617
30109,46616
30110,46616
30111,46616
30111,46615
30112,46614
30113,46614
30115,46613
30115,46612
30116,46611
30117,46611
30119,46611
30119,46611
30121,46610
30121,46610
30122,46610
30123,46609
30123,46608
30124,46609
30125,46608
30125,46608
30126,46607
30128,46607
30129,46607
30130,46607
30131,46606
30132,46606
30134,46606
30134,46605
30135,46604
30136,46604
30138,46604
30139,46604
30141,46603
30141,46603
30143,46603
30145,46602
30147,46601
30148,46601
30150,46602
30152,46601
30154,46600
30156,46600
30159,46600
30160,46600
30163,46599
30168,46598
30175,46598
30184,46598
30194,46598
30204,46598
30209,46599
30216,46599
30223,46599
30228,46600
30230,46600
30234,46600
30237,46601
30237,46601
30240,46602
30243,46602
30246,46601
30247,46602
30249,46603
30252,46603
30255,46603
30257,46604
30259,46604
30261,46604
30264,46604
30265,46605
30267,46606
30269,46606
30272,46606
30272,46606
30274,46607
30276,46607
30279,46607
30280,46608
30282,46609
30283,46609
30286,46609
30287,46609
30288,46610
30289,46610
30291,46610
30292,46611
30295,46612
30296,46612
30297,46612
30297,46614
30298,46617
30298,46621
30298,46628
30298,46637
30298,46644
30298,46656
30298,46665
30298,46671
30298,46674
30297,46675
30296,46673
30296,46674
30295,46674
30294,46673
30292,46673
30291,46673
30290,46673
30290,46672
30289,46671
30289,46671
30287,46671
30287,46670
30285,46670
30285,46670
30283,46669
30282,46669
30281,46668
30280,46668
30279,46668
30279,46667
30278,46666
30277,46667
30275,46667
30275,46666
30274,46665
30273,46665
30270,46665
30270,46665
30268,46664
30267,46664
30265,46664
30265,46663
30264,46662
30263,46662
30260,46662
30260,46662
30258,46661
30257,46661
30255,46661
30254,46661
30252,46660
30251,46660
30249,46660
30248,46659
30246,46658
30245,46658
30242,46658
30241,46658
30239,46657
30238,46657
30234,46657
30233,46657
30232,46656
30230,46656
30227,46655
30223,46655
30217,46655
30208,46655
30203,46655
30195,46655
30189,46655
30184,46655
30181,46655
30181,46655
30178,46656
30177,46656
30174,46656
30173,46656
30171,46657
30170,46657
30168,46657
30167,46658
30166,46658
30165,46658
30163,46659
30163,46659
30161,46660
30161,46660
30160,46660
30159,46660
30159,46662
30158,46662
30157,46662
30154,46664
30154,46665
30154,46663
30153,46664
30152,46665
30150,46666
30150,46667
30150,46667
30152,46666
30153,46665
30154,46663
30154,46665
30152,46667
30149,46670
30148,46672
30148,46672
30148,46673
30147,46673
30146,46674
30146,46675
30146,46677
30146,46678
30145,46679
30144,46682
30144,46685
30145,46689
30145,46691
30146,46692
30146,46693
30146,46694
30146,46696
30147,46697
30149,46698
30149,46699
30149,46700
30151,46703
30153,46704
30153,46703
30153,46703
30153,46702
30154,46703
30156,46705
30157,46705
30158,46705
30158,46706
30159,46707
30159,46707
30161,46707
30161,46707
30162,46708
30162,46708
30164,46708
30164,46709
30166,46710
30167,46709
30168,46710
30169,46710
30171,46711
30172,46711
30173,46711
30174,46712
30175,46713
30177,46712
30179,46712
30179,46713
30180,46714
30182,46714
30185,46714
30186,46714
30188,46715
30189,46715
30192,46715
30193,46716
30195,46717
30196,46717
30199,46717
30200,46717
30202,46718
30204,46718
30207,46718
30208,46719
30209,46720
30211,46720
30214,46719
30216,46720
30218,46721
30220,46721
30223,46721
30223,46722
30225,46723
30226,46722
30229,46722
30230,46723
30232,46724
30233,46724
30236,46724
30237,46724
30239,46725
30240,46725
30242,46725
30242,46726
30243,46727
30245,46727
30247,46727
30248,46727
30250,46728
30250,46728
30252,46728
30253,46729
30254,46729
30255,46729
30257,46729
30258,46730
30258,46731
30259,46731
30261,46731
30261,46732
30263,46732
30263,46732
30265,46732
30265,46733
30266,46734
30267,46734
30269,46734
30269,46735
30270,46735
30270,46735
30272,46735
30272,46736
30273,46737
30274,46737
30276,46737
30276,46738
30277,46738
30277,46738
30278,46738
30281,46740
30283,46742
30285,46742
30286,46742
30286,46743
30287,46744
30287,46744
30289,46744
30289,46745
30291,46747
30291,46747
30293,46748
30296,46750
30299,46754
30301,46755
30304,46758
30307,46761
30308,46763
30308,46763
30308,46763
30309,46764
30311,46766
30311,46767
30311,46768
30312,46769
30312,46769
30312,46770
30312,46771
30313,46771
30314,46772
30314,46773
30314,46774
30314,46774
30315,46775
30315,46776
30315,46778
30316,46778
30317,46779
30316,46781
30316,46782
30317,46783
30318,46784
30318,46786
30318,46788
30318,46788
30319,46789
30319,46790
30320,46792
30320,46796
30320,46802
30320,46810
30320,46811
30320,46811
" /> 
<polyline style="fill-rule:evenodd;"
points="29607,46815
29607,46821
29607,46827
29607,46831
29606,46833
29606,46833
29606,46836
29606,46837
29606,46839
29605,46840
29604,46842
29605,46843
29605,46845
29604,46845
29603,46846
29603,46847
29603,46849
29602,46850
29601,46850
29602,46851
29601,46852
29601,46852
29600,46853
29600,46854
29600,46855
29599,46855
29599,46856
29599,46857
29599,46858
29598,46858
29597,46859
29597,46859
29596,46861
29595,46863
29593,46864
29594,46864
29594,46865
29592,46867
29589,46870
29588,46871
29584,46874
29581,46877
29579,46878
29579,46878
29578,46879
29577,46880
29576,46881
29575,46881
29574,46882
29573,46883
29572,46884
29571,46884
29570,46885
29570,46885
29569,46886
29568,46886
29567,46886
29567,46886
29566,46887
29565,46887
29564,46887
29564,46888
29563,46889
29563,46889
29561,46889
29561,46889
29560,46890
29559,46890
29557,46890
29557,46891
29556,46892
29556,46891
29554,46892
29553,46892
29552,46893
29551,46893
29549,46893
29549,46893
29547,46894
29546,46894
29544,46894
29544,46895
29543,46896
29541,46896
29539,46896
29538,46896
29537,46898
29535,46897
29532,46897
29531,46897
29530,46898
29528,46898
29527,46899
29527,46811
29527,46807
29526,46804
29525,46803
29525,46801
29525,46800
29525,46797
29524,46797
29523,46796
29523,46795
29523,46793
29522,46793
29522,46792
29522,46792
29522,46790
29520,46789
29519,46788
29520,46788
29521,46788
29521,46787
29518,46785
29516,46783
29514,46781
29514,46686
29513,46683
29513,46682
29512,46681
29512,46679
29512,46677
29512,46676
29511,46675
29511,46674
29510,46672
29509,46671
29508,46670
29508,46669
29507,46668
29505,46665
29505,46665
29503,46663
29501,46663
29501,46663
29501,46663
29499,46661
29498,46659
29497,46660
29496,46660
29495,46659
29493,46658
29493,46658
29492,46658
29491,46658
29488,46657
29487,46657
29484,46657
29484,46656
29482,46656
29477,46655
29470,46655
29460,46655
29455,46655
29428,46655
29428,46687
29428,46719
29457,46719
29466,46718
29474,46718
29481,46718
29486,46718
29488,46717
29488,46717
29490,46716
29491,46716
29493,46716
29494,46716
29495,46715
29496,46715
29497,46715
29497,46714
29498,46713
29498,46713
29499,46713
29502,46711
29503,46710
29504,46710
29504,46710
29503,46711
29504,46711
29507,46709
29508,46707
29507,46706
29507,46707
29506,46707
29507,46706
29509,46704
29509,46703
29509,46702
29510,46702
29511,46701
29511,46700
29511,46699
29511,46699
29512,46698
29512,46695
29512,46693
29513,46691
29514,46689
29514,46686
29514,46781
29513,46780
29512,46779
29512,46780
29512,46781
29511,46780
29509,46778
29508,46778
29507,46778
29507,46777
29506,46776
29506,46776
29504,46776
29504,46776
29503,46775
29502,46775
29500,46775
29500,46774
29499,46773
29498,46773
29495,46774
29494,46773
29492,46772
29487,46772
29481,46771
29472,46771
29461,46771
29453,46771
29428,46771
29428,46810
29427,46850
29460,46849
29469,46849
29477,46849
29484,46849
29489,46848
29492,46848
29492,46848
29494,46847
29496,46847
29498,46847
29499,46847
29501,46846
29501,46846
29503,46846
29503,46845
29504,46844
29505,46844
29507,46844
29507,46844
29508,46843
29508,46843
29510,46842
29512,46840
29513,46839
29514,46839
29513,46841
29514,46840
29517,46838
29517,46837
29519,46835
29519,46834
29518,46834
29518,46835
29519,46833
29521,46831
29522,46829
29522,46828
29523,46828
29524,46827
29524,46826
29524,46824
29524,46824
29525,46823
29525,46821
29525,46818
29525,46816
29526,46814
29527,46811
29527,46899
29526,46899
29522,46899
29516,46900
29513,46900
29508,46900
29500,46900
29491,46900
29480,46900
29467,46901
29453,46901
29439,46901
29427,46901
29345,46901
29345,46752
29346,46603
29418,46603
29432,46603
29446,46603
29458,46603
29470,46604
29480,46604
29488,46604
29494,46604
29498,46604
29498,46604
29503,46605
29509,46605
29511,46605
29515,46606
29518,46607
29518,46607
29521,46608
29523,46607
29525,46607
29526,46608
29528,46609
29530,46609
29532,46608
29533,46609
29534,46610
29536,46610
29538,46610
29538,46611
29539,46612
29540,46612
29543,46612
29543,46612
29545,46613
29545,46613
29547,46613
29548,46614
29549,46614
29550,46614
29551,46614
29551,46615
29552,46616
29552,46616
29554,46616
29555,46616
29556,46617
29557,46617
29558,46617
29558,46618
29559,46619
29560,46619
29561,46619
29562,46620
29563,46622
29563,46622
29565,46622
29566,46623
29568,46624
29567,46624
29568,46624
29570,46625
29573,46629
29575,46630
29579,46634
29581,46637
29583,46639
29583,46640
29583,46641
29584,46641
29586,46643
29586,46644
29586,46645
29587,46645
29588,46646
29587,46646
29588,46648
29588,46648
29589,46649
29589,46649
29589,46650
29590,46651
29591,46652
29590,46653
29590,46654
29591,46655
29592,46656
29592,46657
29592,46659
29593,46660
29593,46662
29593,46663
29593,46666
29593,46667
29594,46669
29594,46673
29594,46678
29594,46684
29594,46689
29594,46694
29593,46696
29593,46698
29593,46699
29593,46701
29592,46702
29591,46703
29591,46704
29591,46706
29591,46706
29590,46707
29590,46708
29590,46710
29589,46710
29589,46711
29589,46712
29589,46713
29588,46713
29587,46714
29587,46714
29587,46716
29586,46717
29584,46719
29583,46719
29582,46721
29580,46724
29576,46727
29576,46728
29573,46731
29571,46733
29570,46733
29570,46733
29570,46732
29569,46734
29567,46735
29567,46735
29566,46735
29565,46736
29564,46738
29562,46738
29561,46738
29561,46739
29560,46740
29560,46739
29558,46740
29558,46740
29556,46741
29555,46741
29554,46741
29553,46742
29553,46743
29554,46742
29555,46742
29555,46743
29556,46744
29558,46744
29559,46744
29560,46744
29561,46745
29562,46745
29564,46745
29564,46746
29565,46747
29565,46746
29567,46747
29567,46747
29568,46748
29568,46748
29570,46748
29570,46749
29570,46750
29571,46749
29572,46749
29572,46750
29573,46751
29574,46751
29576,46752
29577,46754
29579,46755
29579,46754
29579,46754
29580,46755
29581,46756
29583,46758
29585,46759
29586,46759
29586,46759
29586,46760
29587,46761
29589,46764
29590,46765
29593,46768
29594,46769
29594,46770
29595,46771
29596,46772
29597,46773
29597,46774
29598,46775
29598,46776
29599,46776
29599,46777
29599,46778
29599,46778
29600,46779
29600,46780
29600,46781
29601,46781
29602,46782
29602,46783
29602,46784
29602,46784
29603,46785
29603,46786
29603,46788
29604,46788
29605,46789
29605,46790
29605,46793
29605,46793
29606,46795
29606,46797
29605,46799
29606,46800
29607,46801
29607,46805
29607,46810
29607,46815
29607,46815
" /> 
<polyline style="fill-rule:evenodd;"
points="30356,46901
30355,46902
30354,46901
30355,46901
30356,46901
30356,46901
" /> 
<polyline style="fill-rule:evenodd;"
points="29924,46604
29924,46604
29923,46606
29923,46607
29923,46607
29921,46609
29920,46610
29920,46611
29920,46612
29918,46613
29918,46614
29916,46615
29916,46616
29916,46616
29917,46616
29916,46617
29914,46619
29913,46621
29912,46622
29910,46624
29909,46626
29909,46626
29910,46626
29908,46627
29908,46628
29906,46630
29906,46631
29906,46631
29906,46631
29905,46632
29903,46634
29903,46635
29903,46637
29902,46637
29900,46638
29900,46639
29900,46641
29898,46642
29896,46644
29896,46645
29895,46646
29894,46647
29893,46648
29893,46649
29893,46651
29892,46651
29890,46653
29890,46653
29890,46655
29888,46656
29886,46658
29886,46659
29885,46660
29884,46661
29883,46662
29883,46663
29883,46665
29882,46666
29880,46667
29880,46668
29880,46669
29878,46670
29876,46672
29876,46673
29875,46675
29874,46675
29873,46677
29873,46677
29872,46679
29870,46681
29869,46682
29870,46682
29870,46683
29869,46684
29868,46684
29866,46686
29866,46687
29866,46687
29866,46688
29865,46689
29863,46691
29863,46692
29862,46694
29860,46695
29859,46697
29860,46697
29860,46697
29859,46698
29858,46699
29856,46701
29856,46702
29856,46702
29856,46702
29855,46703
29853,46705
29853,46706
29852,46708
29850,46710
29849,46711
29850,46711
29850,46711
29849,46712
29848,46713
29846,46715
29846,46716
29846,46716
29846,46717
29845,46717
29844,46719
29843,46720
29842,46722
29840,46724
29839,46725
29840,46725
29840,46725
29839,46727
29838,46727
29836,46729
29836,46730
29836,46730
29836,46731
29835,46731
29834,46733
29833,46734
29832,46736
29830,46738
29829,46739
29830,46739
29830,46739
29829,46741
29828,46741
29826,46743
29826,46744
29826,46744
29826,46745
29825,46746
29824,46748
29823,46748
29822,46750
29821,46752
29819,46754
29820,46754
29820,46754
29819,46755
29817,46757
29817,46759
29816,46760
29815,46761
29813,46762
29813,46763
29813,46764
29811,46766
29809,46767
29809,46768
29809,46770
29808,46770
29806,46772
29806,46773
29806,46774
29805,46776
29804,46776
29804,46778
29804,46780
29803,46784
29803,46789
29803,46796
29803,46805
29803,46816
29803,46829
29803,46839
29803,46901
29764,46901
29764,46710
29764,46709
29762,46709
29762,46709
29762,46710
29763,46710
29764,46710
29764,46901
29763,46901
29723,46901
29723,46839
29723,46824
29723,46811
29723,46801
29723,46793
29723,46787
29723,46783
29722,46779
29722,46777
29722,46776
29721,46775
29721,46775
29719,46773
29720,46773
29721,46773
29720,46772
29717,46770
29717,46768
29716,46767
29715,46766
29713,46764
29714,46764
29714,46763
29712,46762
29712,46761
29710,46760
29710,46759
29710,46759
29711,46759
29710,46758
29707,46756
29707,46754
29706,46752
29705,46751
29704,46750
29704,46750
29704,46749
29702,46747
29702,46747
29700,46745
29700,46745
29700,46745
29701,46745
29700,46744
29698,46741
29697,46740
29696,46738
29695,46738
29694,46736
29694,46736
29694,46734
29692,46733
29690,46731
29690,46730
29689,46729
29688,46728
29687,46727
29687,46726
29687,46724
29686,46724
29684,46722
29684,46722
29684,46720
29682,46719
29680,46717
29680,46716
29679,46715
29678,46714
29677,46713
29677,46712
29677,46710
29676,46709
29674,46708
29674,46707
29674,46706
29672,46705
29670,46703
29670,46702
29669,46700
29668,46700
29667,46698
29667,46697
29667,46696
29666,46695
29664,46694
29664,46693
29664,46692
29662,46690
29660,46689
29660,46688
29659,46686
29658,46685
29657,46684
29657,46683
29657,46682
29656,46681
29654,46680
29654,46679
29654,46677
29652,46676
29650,46674
29650,46673
29649,46672
29649,46671
29647,46670
29647,46669
29646,46667
29644,46665
29643,46664
29644,46664
29644,46664
29643,46662
29642,46662
29640,46660
29640,46659
29640,46659
29640,46658
29639,46658
29637,46656
29637,46655
29636,46653
29634,46651
29633,46650
29634,46650
29634,46650
29633,46648
29632,46648
29630,46646
29630,46645
29630,46645
29630,46644
29629,46643
29627,46642
29627,46641
29626,46639
29624,46637
29623,46636
29624,46636
29624,46636
29623,46634
29622,46634
29620,46632
29620,46631
29620,46631
29620,46630
29619,46629
29618,46627
29617,46626
29616,46625
29614,46623
29613,46621
29614,46621
29614,46621
29613,46620
29611,46618
29610,46616
29609,46614
29608,46614
29607,46612
29607,46612
29607,46611
29606,46609
29605,46609
29603,46607
29603,46607
29604,46607
29605,46607
29603,46606
29601,46604
29601,46603
29602,46603
29606,46603
29612,46603
29620,46602
29629,46602
29640,46602
29645,46602
29657,46602
29667,46602
29675,46602
29681,46602
29685,46603
29688,46603
29690,46603
29691,46604
29692,46605
29692,46605
29694,46607
29693,46607
29693,46607
29693,46607
29694,46609
29695,46609
29697,46611
29697,46612
29697,46612
29697,46613
29698,46614
29700,46615
29700,46616
29700,46618
29701,46618
29703,46620
29703,46621
29703,46622
29704,46623
29705,46624
29705,46625
29706,46627
29707,46627
29708,46629
29708,46629
29709,46631
29710,46632
29711,46633
29711,46634
29711,46635
29713,46636
29714,46637
29714,46638
29714,46638
29716,46640
29716,46641
29718,46642
29718,46643
29717,46643
29717,46643
29718,46644
29719,46645
29721,46647
29721,46648
29721,46648
29721,46648
29722,46649
29724,46651
29724,46652
29724,46653
29725,46654
29727,46655
29727,46656
29727,46658
29728,46658
29730,46660
29730,46660
29730,46662
29731,46663
29732,46664
29732,46665
29733,46666
29734,46667
29735,46668
29735,46669
29735,46671
29737,46671
29738,46673
29738,46673
29739,46675
29740,46676
29742,46678
29742,46679
29743,46680
29744,46681
29745,46682
29745,46683
29746,46685
29747,46685
29748,46687
29748,46687
29749,46689
29750,46689
29751,46691
29751,46692
29751,46693
29752,46694
29754,46695
29754,46696
29754,46698
29755,46698
29757,46700
29757,46700
29757,46702
29758,46703
29760,46705
29760,46705
29761,46706
29763,46707
29765,46706
29766,46705
29767,46704
29768,46703
29769,46701
29769,46700
29770,46699
29771,46698
29772,46697
29772,46696
29772,46694
29773,46694
29775,46692
29775,46692
29775,46690
29777,46689
29778,46688
29778,46687
29778,46687
29780,46685
29780,46684
29782,46683
29782,46682
29781,46683
29781,46682
29782,46681
29783,46680
29785,46679
29785,46678
29784,46678
29784,46678
29785,46677
29786,46676
29788,46674
29788,46673
29788,46673
29788,46673
29789,46672
29791,46670
29791,46669
29791,46668
29792,46667
29794,46666
29794,46665
29794,46663
29795,46663
29796,46661
29796,46660
29797,46659
29798,46658
29799,46657
29799,46656
29800,46655
29801,46654
29802,46652
29802,46652
29802,46651
29804,46649
29804,46649
29806,46647
29806,46647
29806,46647
29805,46647
29806,46645
29807,46645
29809,46643
29809,46643
29808,46643
29808,46643
29809,46641
29810,46641
29812,46639
29812,46638
29812,46638
29812,46637
29813,46636
29815,46634
29815,46634
29815,46632
29816,46632
29818,46630
29818,46629
29818,46628
29819,46627
29821,46626
29821,46625
29821,46623
29822,46623
29823,46621
29823,46621
29824,46619
29825,46618
29827,46617
29826,46616
29826,46616
29828,46614
29828,46613
29830,46612
29830,46611
29830,46611
29829,46611
29831,46610
29831,46609
29833,46608
29833,46607
29833,46607
29832,46607
29833,46606
29834,46605
29835,46604
29836,46604
29837,46603
29840,46603
29843,46603
29848,46602
29855,46602
29864,46602
29875,46602
29881,46602
29893,46602
29903,46602
29911,46602
29916,46603
29920,46603
29923,46603
29924,46603
29924,46604
29924,46604
" /> 
<polyline style="fill-rule:evenodd;"
points="30688,46899
30687,46899
30686,46900
30681,46900
30675,46900
30665,46901
30654,46901
30645,46901
30633,46901
30623,46900
30615,46900
30609,46900
30606,46900
30605,46899
30605,46898
30604,46897
30603,46895
30604,46895
30603,46894
30603,46894
30602,46893
30602,46891
30602,46890
30601,46889
30601,46888
30601,46887
30601,46885
30600,46885
30599,46884
30599,46884
30599,46882
30599,46881
30598,46880
30598,46879
30598,46878
30597,46878
30597,46877
30597,46876
30597,46874
30596,46874
30595,46873
30595,46872
30595,46870
30594,46870
30594,46868
30594,46868
30593,46867
30593,46867
30592,46866
30592,46864
30592,46863
30592,46862
30591,46861
30591,46860
30591,46858
30590,46858
30589,46857
30589,46857
30589,46855
30589,46854
30588,46853
30588,46852
30588,46851
30587,46851
30587,46850
30587,46849
30587,46848
30586,46848
30584,46848
30581,46847
30577,46847
30571,46847
30566,46847
30566,46791
30565,46790
30565,46790
30564,46789
30564,46788
30564,46786
30563,46786
30562,46784
30563,46783
30563,46782
30562,46781
30561,46780
30561,46780
30561,46779
30560,46778
30559,46777
30559,46776
30559,46774
30559,46774
30558,46773
30558,46772
30558,46770
30557,46770
30556,46769
30557,46769
30556,46767
30556,46766
30555,46765
30555,46764
30555,46763
30555,46763
30554,46762
30554,46761
30554,46759
30553,46759
30552,46758
30553,46756
30553,46755
30552,46754
30551,46753
30551,46753
30551,46751
30550,46751
30549,46749
30550,46749
30549,46747
30549,46747
30548,46746
30548,46745
30548,46743
30548,46743
30547,46742
30547,46741
30547,46739
30546,46739
30545,46738
30545,46737
30545,46736
30545,46735
30544,46733
30544,46733
30544,46732
30543,46732
30542,46731
30542,46729
30542,46728
30542,46727
30541,46726
30541,46725
30541,46723
30540,46723
30539,46722
30540,46722
30539,46720
30539,46719
30538,46718
30538,46717
30538,46716
30538,46716
30537,46715
30537,46714
30537,46712
30536,46712
30535,46711
30535,46710
30535,46708
30535,46708
30534,46706
30534,46706
30534,46705
30533,46705
30532,46703
30532,46702
30532,46701
30532,46700
30531,46699
30531,46698
30531,46696
30531,46696
30529,46695
30530,46695
30529,46693
30529,46692
30528,46691
30528,46690
30528,46689
30528,46689
30526,46688
30527,46687
30527,46685
30526,46685
30525,46684
30526,46683
30526,46681
30525,46680
30524,46680
30524,46679
30523,46678
30523,46674
30523,46674
30521,46674
30521,46674
30521,46675
30522,46675
30523,46674
30523,46678
30523,46678
30520,46678
30520,46678
30520,46679
30520,46681
30519,46681
30518,46683
30518,46683
30518,46685
30518,46685
30517,46686
30517,46687
30517,46689
30516,46689
30515,46690
30515,46690
30515,46692
30515,46692
30514,46694
30514,46695
30514,46696
30513,46696
30512,46697
30512,46698
30513,46700
30512,46700
30511,46701
30511,46702
30511,46704
30511,46705
30510,46705
30510,46706
30510,46708
30509,46708
30508,46710
30508,46710
30508,46712
30508,46712
30507,46713
30507,46714
30507,46716
30506,46716
30506,46717
30506,46718
30506,46720
30505,46720
30504,46721
30504,46721
30504,46723
30503,46724
30503,46725
30503,46726
30503,46727
30502,46727
30501,46728
30501,46729
30501,46731
30500,46732
30500,46732
30500,46733
30500,46735
30499,46735
30498,46737
30499,46737
30498,46739
30498,46739
30497,46740
30497,46741
30497,46743
30496,46743
30496,46744
30496,46745
30496,46747
30495,46747
30494,46748
30494,46749
30494,46750
30493,46751
30493,46752
30493,46753
30493,46754
30492,46754
30491,46755
30491,46756
30491,46758
30491,46759
30490,46759
30490,46760
30490,46762
30489,46762
30488,46764
30489,46764
30488,46766
30488,46766
30487,46767
30487,46768
30487,46770
30486,46770
30486,46771
30486,46772
30486,46774
30485,46774
30484,46775
30484,46775
30484,46777
30484,46778
30483,46779
30483,46780
30483,46781
30482,46781
30481,46782
30481,46783
30481,46785
30481,46786
30480,46787
30480,46788
30480,46789
30479,46790
30478,46791
30478,46791
30479,46791
30483,46791
30489,46792
30497,46792
30506,46792
30517,46792
30522,46792
30533,46792
30543,46792
30551,46792
30558,46791
30563,46791
30566,46791
30566,46791
30566,46847
30564,46847
30554,46847
30542,46847
30527,46847
30522,46847
30506,46847
30493,46847
30482,46847
30474,46848
30467,46848
30463,46848
30460,46848
30458,46849
30458,46849
30457,46851
30457,46851
30456,46852
30456,46853
30456,46855
30455,46855
30454,46856
30454,46857
30454,46858
30454,46859
30453,46860
30453,46861
30453,46862
30452,46862
30452,46863
30452,46864
30452,46866
30451,46867
30450,46867
30450,46868
30450,46870
30449,46870
30449,46872
30449,46872
30449,46874
30448,46874
30447,46875
30447,46876
30447,46878
30446,46878
30446,46879
30446,46879
30446,46881
30445,46881
30444,46883
30444,46884
30444,46885
30444,46885
30443,46886
30443,46887
30443,46889
30442,46889
30441,46890
30442,46891
30441,46892
30441,46893
30440,46895
30440,46895
30440,46896
30439,46896
30438,46897
30439,46899
30439,46899
30438,46900
30436,46900
30432,46900
30427,46900
30420,46901
30411,46901
30399,46901
30398,46901
30387,46901
30377,46900
30369,46900
30362,46900
30358,46900
30356,46899
30356,46899
30357,46898
30357,46897
30358,46895
30358,46895
30358,46894
30358,46894
30359,46893
30359,46892
30359,46890
30360,46890
30361,46888
30361,46888
30361,46887
30361,46886
30362,46886
30362,46885
30362,46883
30363,46883
30364,46881
30363,46881
30364,46879
30364,46879
30365,46878
30365,46877
30365,46875
30365,46875
30366,46874
30366,46874
30366,46872
30367,46872
30368,46871
30367,46870
30368,46868
30368,46868
30369,46867
30369,46867
30369,46865
30370,46865
30371,46864
30371,46863
30371,46861
30371,46861
30372,46860
30372,46859
30372,46858
30373,46858
30374,46857
30374,46856
30374,46854
30374,46854
30375,46853
30375,46852
30375,46851
30376,46851
30377,46850
30376,46849
30376,46847
30377,46847
30378,46846
30378,46845
30378,46844
30378,46843
30379,46841
30379,46841
30379,46840
30380,46840
30381,46839
30381,46838
30381,46836
30381,46836
30382,46834
30382,46834
30382,46833
30383,46832
30384,46832
30383,46831
30384,46829
30384,46829
30385,46827
30385,46827
30385,46825
30385,46825
30386,46824
30386,46823
30386,46821
30387,46821
30388,46820
30388,46820
30388,46818
30388,46818
30389,46817
30389,46816
30389,46814
30390,46814
30391,46813
30390,46813
30391,46811
30391,46811
30392,46810
30392,46809
30392,46807
30393,46807
30394,46806
30393,46805
30393,46804
30394,46804
30395,46803
30395,46802
30395,46800
30396,46800
30396,46799
30396,46798
30396,46797
30397,46796
30398,46795
30397,46794
30398,46793
30398,46793
30399,46792
30399,46791
30399,46789
30400,46789
30401,46787
30400,46787
30400,46786
30401,46786
30402,46784
30402,46783
30402,46782
30402,46781
30403,46780
30403,46780
30403,46779
30404,46778
30405,46777
30404,46776
30405,46774
30405,46774
30406,46773
30406,46773
30406,46771
30407,46771
30408,46770
30407,46769
30407,46767
30408,46767
30409,46766
30409,46766
30409,46764
30410,46764
30411,46763
30411,46762
30411,46760
30411,46760
30412,46759
30412,46759
30412,46757
30413,46757
30414,46756
30413,46755
30413,46753
30414,46753
30415,46752
30415,46752
30415,46750
30415,46749
30416,46748
30416,46747
30416,46746
30417,46746
30418,46745
30418,46744
30418,46743
30418,46742
30419,46740
30419,46740
30419,46739
30420,46739
30421,46738
30420,46737
30421,46736
30421,46735
30422,46733
30422,46733
30422,46732
30422,46732
30423,46730
30423,46729
30423,46728
30424,46727
30425,46726
30425,46726
30425,46725
30425,46724
30426,46723
30426,46722
30426,46720
30427,46720
30428,46719
30427,46719
30428,46717
30428,46717
30429,46716
30429,46715
30429,46713
30430,46713
30430,46712
30430,46712
30430,46710
30431,46710
30432,46709
30432,46708
30432,46706
30433,46706
30433,46705
30433,46705
30433,46703
30434,46702
30435,46701
30434,46700
30435,46699
30435,46699
30436,46698
30436,46698
30436,46696
30437,46695
30437,46694
30437,46693
30438,46692
30438,46692
30439,46691
30439,46690
30439,46689
30439,46688
30440,46686
30440,46686
30440,46685
30441,46685
30442,46684
30441,46683
30442,46681
30442,46680
30443,46680
30443,46679
30443,46678
30444,46678
30444,46676
30444,46675
30444,46674
30445,46673
30446,46672
30446,46672
30446,46671
30447,46670
30448,46669
30447,46668
30447,46666
30448,46666
30449,46665
30449,46665
30449,46663
30449,46663
30451,46662
30450,46661
30450,46659
30451,46659
30452,46658
30452,46658
30452,46656
30452,46656
30453,46655
30453,46654
30453,46652
30454,46652
30455,46651
30454,46651
30455,46649
30455,46648
30456,46647
30456,46646
30456,46645
30457,46645
30458,46644
30457,46643
30458,46642
30458,46641
30459,46640
30459,46639
30459,46638
30459,46638
30460,46637
30460,46636
30460,46634
30461,46633
30462,46633
30462,46632
30462,46631
30462,46631
30463,46630
30463,46628
30463,46627
30464,46626
30465,46625
30464,46625
30464,46624
30465,46624
30466,46622
30466,46621
30466,46620
30466,46619
30467,46618
30467,46618
30467,46617
30468,46616
30469,46615
30469,46614
30469,46612
30469,46612
30470,46611
30470,46611
30470,46609
30471,46609
30472,46608
30472,46607
30472,46605
30472,46605
30473,46604
30473,46604
30474,46603
30478,46603
30485,46603
30494,46602
30506,46602
30521,46602
30522,46602
30537,46602
30549,46602
30559,46603
30566,46603
30570,46603
30571,46604
30571,46604
30571,46605
30572,46605
30573,46606
30573,46607
30573,46609
30573,46609
30574,46610
30574,46611
30574,46612
30575,46612
30576,46613
30575,46614
30575,46616
30576,46616
30577,46617
30577,46618
30577,46620
30577,46620
30578,46622
30578,46622
30578,46623
30579,46624
30580,46624
30580,46625
30580,46627
30580,46627
30581,46629
30581,46629
30581,46631
30582,46631
30583,46631
30582,46632
30583,46634
30583,46634
30584,46636
30584,46636
30584,46638
30584,46638
30585,46639
30585,46640
30585,46642
30586,46642
30587,46643
30587,46643
30587,46645
30587,46645
30588,46646
30588,46647
30588,46649
30589,46649
30590,46650
30589,46651
30590,46652
30590,46652
30591,46653
30591,46654
30591,46656
30592,46656
30592,46657
30592,46658
30592,46659
30593,46659
30594,46660
30594,46661
30594,46663
30595,46663
30595,46664
30595,46665
30595,46666
30596,46667
30597,46669
30596,46669
30597,46670
30597,46670
30598,46671
30598,46672
30598,46674
30599,46674
30599,46676
30599,46676
30600,46677
30600,46678
30601,46678
30601,46679
30601,46681
30601,46681
30602,46683
30602,46683
30602,46685
30603,46685
30604,46686
30603,46687
30604,46689
30604,46689
30605,46690
30605,46690
30605,46692
30606,46692
30606,46693
30606,46694
30606,46696
30607,46696
30608,46697
30608,46697
30608,46699
30608,46699
30609,46700
30609,46701
30609,46703
30610,46703
30611,46704
30611,46705
30611,46706
30612,46706
30613,46707
30612,46708
30612,46710
30613,46710
30614,46711
30614,46712
30614,46713
30614,46713
30615,46714
30615,46715
30615,46717
30616,46717
30617,46718
30617,46719
30617,46720
30617,46721
30618,46723
30618,46723
30618,46724
30619,46724
30620,46725
30619,46726
30620,46728
30620,46728
30621,46730
30621,46730
30621,46731
30621,46732
30622,46733
30622,46734
30622,46736
30623,46736
30624,46737
30624,46737
30624,46739
30624,46739
30625,46740
30625,46741
30625,46743
30626,46743
30627,46744
30626,46744
30626,46746
30627,46746
30628,46747
30628,46748
30628,46750
30628,46750
30629,46751
30629,46751
30629,46753
30630,46753
30631,46754
30631,46755
30631,46757
30631,46757
30632,46758
30632,46759
30632,46760
30633,46760
30634,46761
30634,46762
30634,46764
30634,46764
30635,46765
30635,46766
30635,46767
30636,46767
30637,46768
30637,46769
30637,46771
30637,46771
30638,46772
30638,46773
30638,46774
30638,46775
30639,46777
30639,46777
30639,46778
30640,46778
30641,46779
30641,46780
30641,46782
30641,46782
30642,46784
30642,46784
30642,46785
30643,46786
30643,46787
30643,46788
30643,46789
30644,46790
30645,46791
30645,46791
30645,46793
30645,46793
30646,46794
30646,46795
30646,46797
30647,46797
30648,46798
30648,46798
30648,46800
30648,46800
30650,46801
30649,46802
30649,46804
30650,46804
30651,46805
30651,46805
30651,46807
30651,46807
30652,46808
30652,46809
30652,46811
30653,46811
30654,46812
30653,46812
30654,46814
30654,46815
30655,46816
30655,46817
30655,46818
30656,46818
30656,46819
30656,46820
30656,46821
30657,46822
30658,46823
30658,46824
30658,46825
30658,46825
30659,46826
30659,46827
30659,46828
30660,46829
30661,46831
30660,46831
30661,46832
30661,46832
30662,46833
30662,46835
30662,46836
30663,46837
30664,46838
30663,46838
30663,46839
30664,46840
30665,46841
30665,46842
30665,46844
30665,46844
30666,46845
30666,46845
30666,46847
30667,46847
30668,46848
30668,46849
30668,46851
30668,46851
30669,46852
30669,46852
30669,46854
30670,46854
30671,46855
30671,46856
30671,46858
30671,46858
30672,46859
30672,46859
30672,46861
30673,46862
30673,46863
30673,46864
30673,46865
30674,46865
30675,46866
30675,46866
30675,46868
30675,46869
30676,46870
30676,46871
30676,46872
30677,46872
30678,46873
30678,46874
30678,46875
30678,46876
30679,46877
30679,46878
30679,46879
30680,46879
30680,46880
30680,46881
30680,46883
30681,46884
30682,46884
30682,46885
30682,46886
30682,46886
30683,46888
30683,46889
30683,46890
30684,46891
30685,46892
30685,46892
30685,46893
30685,46894
30686,46895
30686,46896
30686,46898
30687,46898
30688,46899
30688,46899
" /> 
<polyline style="fill-rule:evenodd;"
points="28593,46813
28587,46821
28582,46829
28575,46836
28567,46844
28560,46850
28553,46855
28540,46862
28525,46867
28520,46869
28514,46870
28506,46871
28496,46871
28486,46872
28476,46872
28467,46871
28460,46871
28457,46870
28439,46865
28423,46858
28408,46849
28396,46838
28385,46825
28376,46810
28370,46794
28368,46788
28367,46779
28366,46768
28365,46757
28365,46745
28366,46734
28367,46725
28368,46721
28373,46703
28381,46687
28391,46673
28404,46661
28417,46650
28433,46642
28451,46636
28454,46636
28469,46633
28486,46633
28503,46634
28520,46636
28527,46638
28540,46643
28553,46649
28565,46657
28576,46667
28584,46677
28590,46685
28592,46689
28565,46702
28557,46706
28550,46709
28545,46712
28541,46714
28539,46714
28538,46714
28538,46713
28536,46711
28534,46708
28529,46701
28522,46694
28514,46688
28511,46687
28505,46685
28496,46684
28487,46684
28478,46685
28471,46686
28462,46691
28454,46698
28448,46708
28443,46719
28440,46732
28438,46748
28438,46752
28439,46768
28442,46782
28446,46794
28453,46804
28461,46812
28470,46817
28482,46820
28486,46820
28499,46820
28511,46818
28522,46813
28531,46806
28538,46797
28538,46796
28541,46792
28543,46789
28544,46788
28545,46789
28549,46791
28554,46793
28561,46797
28569,46800
28569,46800
28593,46813
28593,46813
" /> 
<polyline style="fill-rule:evenodd;"
points="28829,46813
28827,46817
28815,46832
28802,46845
28788,46855
28772,46864
28757,46869
28750,46870
28741,46871
28732,46871
28721,46872
28711,46872
28702,46871
28695,46870
28695,46870
28678,46866
28664,46861
28652,46854
28640,46845
28634,46839
28628,46833
28623,46828
28620,46823
28617,46818
28614,46813
28611,46806
28608,46799
28606,46792
28605,46790
28604,46783
28603,46774
28602,46764
28602,46754
28602,46744
28602,46735
28603,46728
28607,46710
28614,46694
28623,46679
28634,46666
28647,46655
28662,46646
28678,46639
28688,46636
28698,46634
28709,46633
28721,46633
28734,46633
28745,46634
28753,46635
28771,46641
28787,46648
28801,46657
28808,46663
28812,46667
28817,46672
28821,46677
28824,46682
28826,46686
28827,46688
28827,46689
28825,46690
28821,46692
28815,46695
28809,46698
28802,46701
28795,46705
28788,46708
28782,46710
28777,46712
28774,46713
28773,46713
28772,46711
28769,46708
28767,46704
28759,46695
28750,46689
28740,46685
28728,46683
28723,46684
28711,46686
28700,46690
28691,46696
28684,46705
28679,46716
28675,46726
28675,46732
28674,46739
28674,46748
28674,46757
28674,46766
28675,46774
28676,46778
28680,46791
28686,46801
28693,46810
28702,46816
28705,46817
28712,46819
28720,46820
28729,46820
28738,46820
28745,46819
28746,46819
28755,46814
28764,46808
28771,46799
28772,46798
28775,46794
28778,46790
28779,46789
28779,46789
28781,46789
28785,46791
28790,46793
28797,46796
28804,46800
28805,46800
28829,46813
28829,46813
" /> 
<polyline style="fill-rule:evenodd;"
points="30016,46755
30016,46784
30015,46813
29948,46814
29881,46814
29881,46785
29881,46756
29948,46755
30016,46755
30016,46755
" /> 
<polyline style="fill-rule:evenodd;"
points="30304,46757
30304,46757
30302,46756
30300,46753
30297,46749
30301,46753
30303,46755
30304,46757
30304,46757
30304,46757
" /> 
<polyline style="fill-rule:evenodd;"
points="29581,46634
29581,46635
29579,46634
29576,46630
29576,46630
29572,46626
29576,46630
29579,46632
29581,46634
29581,46634
29581,46634
" /> 
</g>
<g style="fill:#000000; fill-opacity:0.0; 
stroke:#000000; stroke-width:1; stroke-opacity:1; 
stroke-linecap:round; stroke-linejoin:round;">
</g>
<g style="fill:#000000; fill-opacity:0.0; 
stroke:#000000; stroke-width:59.0551; stroke-opacity:1; 
stroke-linecap:round; stroke-linejoin:round;">
<path d="M39557 41065
L39576 41084
L39595 41140
L39595 41178
L39576 41234
L39539 41271
L39501 41290
L39426 41309
L39370 41309
L39295 41290
L39257 41271
L39220 41234
L39201 41178
L39201 41140
L39220 41084
L39239 41065
" />
<path d="M39595 40690
L39595 40915
" />
<path d="M39595 40803
L39201 40803
L39257 40840
L39295 40878
L39314 40915
" />
<path d="M46853 42565
L46871 42584
L46890 42640
L46890 42678
L46871 42734
L46834 42771
L46796 42790
L46721 42809
L46665 42809
L46590 42790
L46553 42771
L46515 42734
L46497 42678
L46497 42640
L46515 42584
L46534 42565
" />
<path d="M46534 42415
L46515 42396
L46497 42359
L46497 42265
L46515 42228
L46534 42209
L46571 42190
L46609 42190
L46665 42209
L46890 42434
L46890 42190
" />
<path d="M46434 44057
L46415 44076
L46359 44095
L46321 44095
L46265 44076
L46228 44039
L46209 44001
L46190 43926
L46190 43870
L46209 43795
L46228 43757
L46265 43720
L46321 43701
L46359 43701
L46415 43720
L46434 43739
" />
<path d="M46565 43701
L46809 43701
L46678 43851
L46734 43851
L46771 43870
L46790 43889
L46809 43926
L46809 44020
L46790 44057
L46771 44076
L46734 44095
L46621 44095
L46584 44076
L46565 44057
" />
<path d="M33450 45199
L33431 45218
L33375 45237
L33337 45237
L33281 45218
L33243 45180
L33225 45143
L33206 45068
L33206 45012
L33225 44937
L33243 44899
L33281 44862
L33337 44843
L33375 44843
L33431 44862
L33450 44880
" />
<path d="M33787 44974
L33787 45237
" />
<path d="M33693 44824
L33600 45105
L33843 45105
" />
<path d="M29450 45199
L29431 45218
L29375 45237
L29337 45237
L29281 45218
L29243 45180
L29225 45143
L29206 45068
L29206 45012
L29225 44937
L29243 44899
L29281 44862
L29337 44843
L29375 44843
L29431 44862
L29450 44880
" />
<path d="M29806 44843
L29618 44843
L29600 45030
L29618 45012
L29656 44993
L29750 44993
L29787 45012
L29806 45030
L29825 45068
L29825 45162
L29806 45199
L29787 45218
L29750 45237
L29656 45237
L29618 45218
L29600 45199
" />
<path d="M50684 37890
L50665 37909
L50609 37928
L50571 37928
L50515 37909
L50478 37871
L50459 37834
L50440 37759
L50440 37703
L50459 37628
L50478 37590
L50515 37553
L50571 37534
L50609 37534
L50665 37553
L50684 37571
" />
<path d="M51021 37534
L50946 37534
L50909 37553
L50890 37571
L50853 37628
L50834 37703
L50834 37853
L50853 37890
L50871 37909
L50909 37928
L50984 37928
L51021 37909
L51040 37890
L51059 37853
L51059 37759
L51040 37721
L51021 37703
L50984 37684
L50909 37684
L50871 37703
L50853 37721
L50834 37759
" />
<path d="M50428 43790
L50034 43790
L50034 43696
L50053 43640
L50090 43603
L50128 43584
L50203 43565
L50259 43565
L50334 43584
L50371 43603
L50409 43640
L50428 43696
L50428 43790
" />
<path d="M50428 43190
L50428 43415
" />
<path d="M50428 43303
L50034 43303
L50090 43340
L50128 43378
L50146 43415
" />
<path d="M52578 36290
L52184 36290
L52184 36196
L52203 36140
L52240 36103
L52278 36084
L52353 36065
L52409 36065
L52484 36084
L52521 36103
L52559 36140
L52578 36196
L52578 36290
" />
<path d="M52221 35915
L52203 35896
L52184 35859
L52184 35765
L52203 35728
L52221 35709
L52259 35690
L52296 35690
L52353 35709
L52578 35934
L52578 35690
" />
<path d="M25368 43784
L25368 44065
L25350 44121
L25312 44159
L25256 44178
L25218 44178
" />
<path d="M25762 44178
L25537 44178
" />
<path d="M25649 44178
L25649 43784
L25612 43840
L25574 43878
L25537 43896
" />
<path d="M26372 40131
L26654 40131
L26710 40149
L26747 40187
L26766 40243
L26766 40281
" />
<path d="M26410 39962
L26391 39943
L26372 39906
L26372 39812
L26391 39775
L26410 39756
L26447 39737
L26485 39737
L26541 39756
L26766 39981
L26766 39737
" />
<path d="M55784 35131
L56065 35131
L56121 35149
L56159 35187
L56178 35243
L56178 35281
" />
<path d="M55784 34981
L55784 34737
L55934 34868
L55934 34812
L55953 34775
L55971 34756
L56009 34737
L56103 34737
L56140 34756
L56159 34775
L56178 34812
L56178 34925
L56159 34962
L56140 34981
" />
<path d="M55965 44537
L55946 44574
L55909 44612
L55853 44668
L55834 44706
L55834 44743
" />
<path d="M55928 44724
L55909 44762
L55871 44799
L55796 44818
L55665 44818
L55590 44799
L55553 44762
L55534 44724
L55534 44649
L55553 44612
L55590 44574
L55665 44556
L55796 44556
L55871 44574
L55909 44612
L55928 44649
L55928 44724
" />
<path d="M55928 44181
L55928 44406
" />
<path d="M55928 44293
L55534 44293
L55590 44331
L55628 44368
L55646 44406
" />
</g>
<g style="fill:#000000; fill-opacity:0.0; 
stroke:#000000; stroke-width:35; stroke-opacity:1; 
stroke-linecap:round; stroke-linejoin:round;">
<path d="M40958 44040
L40852 43888
" />
<path d="M40775 44040
L40775 43720
L40897 43720
L40928 43736
L40943 43751
L40958 43781
L40958 43827
L40943 43857
L40928 43873
L40897 43888
L40775 43888
" />
<path d="M41263 44040
L41080 44040
" />
<path d="M41172 44040
L41172 43720
L41141 43766
L41111 43796
L41080 43812
" />
</g>
<g style="fill:#000000; fill-opacity:0.0; 
stroke:#000000; stroke-width:59.0551; stroke-opacity:1; 
stroke-linecap:round; stroke-linejoin:round;">
<path d="M37178 42065
L36990 42196
" />
<path d="M37178 42290
L36784 42290
L36784 42140
L36803 42103
L36821 42084
L36859 42065
L36915 42065
L36953 42084
L36971 42103
L36990 42140
L36990 42290
" />
<path d="M36821 41915
L36803 41896
L36784 41859
L36784 41765
L36803 41728
L36821 41709
L36859 41690
L36896 41690
L36953 41709
L37178 41934
L37178 41690
" />
<path d="M52022 42526
L51834 42657
" />
<path d="M52022 42751
L51628 42751
L51628 42601
L51647 42564
L51665 42545
L51703 42526
L51759 42526
L51797 42545
L51815 42564
L51834 42601
L51834 42751
" />
<path d="M51628 42395
L51628 42151
L51778 42282
L51778 42226
L51797 42189
L51815 42170
L51853 42151
L51947 42151
L51984 42170
L52003 42189
L52022 42226
L52022 42339
L52003 42376
L51984 42395
" />
<path d="M50178 35065
L49990 35196
" />
<path d="M50178 35290
L49784 35290
L49784 35140
L49803 35103
L49821 35084
L49859 35065
L49915 35065
L49953 35084
L49971 35103
L49990 35140
L49990 35290
" />
<path d="M49915 34728
L50178 34728
" />
<path d="M49765 34821
L50046 34915
L50046 34671
" />
<path d="M53801 40654
L53819 40598
L53819 40504
L53801 40466
L53782 40448
L53744 40429
L53707 40429
L53669 40448
L53651 40466
L53632 40504
L53613 40579
L53594 40616
L53576 40635
L53538 40654
L53501 40654
L53463 40635
L53444 40616
L53426 40579
L53426 40485
L53444 40429
" />
<path d="M53819 40054
L53819 40279
" />
<path d="M53819 40166
L53426 40166
L53482 40204
L53519 40241
L53538 40279
" />
<path d="M43700 38784
L43700 39103
L43718 39140
L43737 39159
L43775 39178
L43850 39178
L43887 39159
L43906 39140
L43925 39103
L43925 38784
" />
<path d="M44318 39178
L44093 39178
" />
<path d="M44206 39178
L44206 38784
L44168 38840
L44131 38878
L44093 38896
" />
<path d="M30984 32197
L31115 32591
L31246 32197
" />
<path d="M31603 32591
L31471 32404
" />
<path d="M31378 32591
L31378 32197
L31528 32197
L31565 32216
L31584 32235
L31603 32272
L31603 32329
L31584 32366
L31565 32385
L31528 32404
L31378 32404
" />
<path d="M31978 32591
L31753 32591
" />
<path d="M31865 32591
L31865 32197
L31828 32254
L31790 32291
L31753 32310
" />
</g> 
</svg>
