<?xml version="1.0" standalone="no"?>
 <!DOCTYPE svg PUBLIC "-//W3C//DTD SVG 1.1//EN" 
 "http://www.w3.org/Graphics/SVG/1.1/DTD/svg11.dtd"> 
<svg xmlns="http://www.w3.org/2000/svg" version="1.1" 
    width="10.9677cm" height="5.23748cm" viewBox="0 0 43180 20620 ">
<title>SVG Picture created as Lichttheremin-F.Paste.svg date 2017/06/05 14:54:15 </title>
  <desc>Picture generated by PCBNEW </desc>
<g style="fill:#000000; fill-opacity:1;stroke:#000000; stroke-opacity:1;
stroke-linecap:round; stroke-linejoin:round; "
 transform="translate(0 0) scale(1 1)">
</g>
<g style="fill:#000000; fill-opacity:0.0; 
stroke:#000000; stroke-width:-0.000393701; stroke-opacity:1; 
stroke-linecap:round; stroke-linejoin:round;">
</g>
<g style="fill:#000000; fill-opacity:0.0; 
stroke:#000000; stroke-width:59.0551; stroke-opacity:1; 
stroke-linecap:round; stroke-linejoin:round;">
<path d="M3877 18779
L3877 1850
" />
<path d="M39311 18779
L3877 18779
" />
<path d="M39311 1850
L39311 18779
" />
<path d="M3877 1850
L39311 1850
" />
</g>
<g style="fill:#000000; fill-opacity:0.0; 
stroke:#000000; stroke-width:0; stroke-opacity:1; 
stroke-linecap:round; stroke-linejoin:round;">
</g>
<g style="fill:#000000; fill-opacity:1.0; 
stroke:#000000; stroke-width:0; stroke-opacity:1; 
stroke-linecap:round; stroke-linejoin:round;">
<polyline style="fill-rule:evenodd;"
points="33283,11728
33952,11728
33952,13027
33283,13027
33283,11728
" /> 
<polyline style="fill-rule:evenodd;"
points="33283,13894
33952,13894
33952,15193
33283,15193
33283,13894
" /> 
<polyline style="fill-rule:evenodd;"
points="35922,14027
36631,14027
36631,14342
35922,14342
35922,14027
" /> 
<polyline style="fill-rule:evenodd;"
points="35922,14579
36631,14579
36631,14894
35922,14894
35922,14579
" /> 
<polyline style="fill-rule:evenodd;"
points="37104,14303
37813,14303
37813,14618
37104,14618
37104,14303
" /> 
<circle cx="22831.1" cy="14960.6" r="330" /> 
</g>
<g style="fill:#000000; fill-opacity:1.0; 
stroke:#000000; stroke-width:39.3701; stroke-opacity:1; 
stroke-linecap:round; stroke-linejoin:round;">
</g>
<g style="fill:#000000; fill-opacity:1.0; 
stroke:#000000; stroke-width:0; stroke-opacity:1; 
stroke-linecap:round; stroke-linejoin:round;">
<circle cx="24405.1" cy="14960.6" r="330" /> 
</g>
<g style="fill:#000000; fill-opacity:1.0; 
stroke:#000000; stroke-width:39.3701; stroke-opacity:1; 
stroke-linecap:round; stroke-linejoin:round;">
</g>
<g style="fill:#000000; fill-opacity:1.0; 
stroke:#000000; stroke-width:0; stroke-opacity:1; 
stroke-linecap:round; stroke-linejoin:round;">
<polyline style="fill-rule:evenodd;"
points="35604,13268
35132,13268
35132,12677
35604,12677
35604,13268
" /> 
<polyline style="fill-rule:evenodd;"
points="35604,12244
35132,12244
35132,11653
35604,11653
35604,12244
" /> 
</g> 
</svg>
