G04 #@! TF.FileFunction,Copper,L1,Top,Signal*
%FSLAX46Y46*%
G04 Gerber Fmt 4.6, Leading zero omitted, Abs format (unit mm)*
G04 Created by KiCad (PCBNEW 4.0.6) date Mon Jul 17 13:21:17 2017*
%MOMM*%
%LPD*%
G01*
G04 APERTURE LIST*
%ADD10C,0.100000*%
%ADD11C,1.600000*%
%ADD12C,1.400000*%
%ADD13C,1.500000*%
%ADD14R,1.500000X1.500000*%
%ADD15R,1.699260X3.299460*%
%ADD16R,1.800000X1.800000*%
%ADD17C,1.800000*%
%ADD18R,2.500000X2.500000*%
%ADD19R,1.800860X0.800100*%
%ADD20C,1.676400*%
%ADD21R,1.198880X1.501140*%
%ADD22R,2.000000X2.000000*%
%ADD23C,2.000000*%
%ADD24R,1.600000X1.600000*%
%ADD25R,3.500000X3.500000*%
%ADD26C,0.635000*%
G04 APERTURE END LIST*
D10*
D11*
X102870000Y-106680000D03*
X102870000Y-101600000D03*
X120650000Y-109220000D03*
X120650000Y-106680000D03*
X115570000Y-114300000D03*
X120650000Y-114300000D03*
D12*
X87630000Y-107950000D03*
X82630000Y-107950000D03*
X77470000Y-107950000D03*
X72470000Y-107950000D03*
D13*
X130810000Y-100330000D03*
D14*
X128270000Y-100330000D03*
D15*
X129540000Y-107739180D03*
X129540000Y-113240820D03*
D13*
X130810000Y-92710000D03*
D14*
X130810000Y-90170000D03*
D16*
X59690000Y-111760000D03*
D17*
X62230000Y-111760000D03*
D18*
X65285000Y-99350000D03*
X65285000Y-103850000D03*
X57785000Y-104900000D03*
X57785000Y-98300000D03*
D16*
X138430000Y-93980000D03*
D17*
X138430000Y-91440000D03*
D19*
X136293860Y-112328960D03*
X136293860Y-113731040D03*
X139296140Y-113030000D03*
D20*
X102141020Y-114300000D03*
X106138980Y-114300000D03*
D11*
X96520000Y-111760000D03*
X96520000Y-101600000D03*
D21*
X133985000Y-109250480D03*
X133985000Y-106649520D03*
D11*
X124460000Y-93980000D03*
X124460000Y-83820000D03*
D22*
X140000000Y-102500000D03*
D23*
X140000000Y-105500000D03*
X140000000Y-99500000D03*
D24*
X107950000Y-101600000D03*
D11*
X107950000Y-104140000D03*
X107950000Y-106680000D03*
X107950000Y-109220000D03*
X115570000Y-109220000D03*
X115570000Y-106680000D03*
X115570000Y-104140000D03*
X115570000Y-101600000D03*
D25*
X74010000Y-89330000D03*
D12*
X81010000Y-100330000D03*
X79010000Y-100330000D03*
X83010000Y-100330000D03*
X77010000Y-100330000D03*
X75010000Y-100330000D03*
X85010000Y-100330000D03*
D25*
X86010000Y-89330000D03*
D26*
X107950000Y-104140000D02*
X106045000Y-104140000D01*
X104775000Y-106680000D02*
X102870000Y-106680000D01*
X105410000Y-106045000D02*
X104775000Y-106680000D01*
X105410000Y-104775000D02*
X105410000Y-106045000D01*
X106045000Y-104140000D02*
X105410000Y-104775000D01*
X96520000Y-101600000D02*
X99060000Y-101600000D01*
X101600000Y-106680000D02*
X102870000Y-106680000D01*
X100330000Y-105410000D02*
X101600000Y-106680000D01*
X100330000Y-102870000D02*
X100330000Y-105410000D01*
X99060000Y-101600000D02*
X100330000Y-102870000D01*
X133985000Y-106649520D02*
X133985000Y-103505000D01*
X133985000Y-103505000D02*
X130810000Y-100330000D01*
X115570000Y-109220000D02*
X120650000Y-109220000D01*
X111760000Y-109220000D02*
X110490000Y-109220000D01*
X110490000Y-109220000D02*
X107950000Y-109220000D01*
X115570000Y-114300000D02*
X113665000Y-114300000D01*
X113030000Y-101600000D02*
X111760000Y-102870000D01*
X111760000Y-102870000D02*
X111760000Y-107950000D01*
X113030000Y-101600000D02*
X115570000Y-101600000D01*
X111760000Y-112395000D02*
X111760000Y-109220000D01*
X111760000Y-109220000D02*
X111760000Y-107950000D01*
X113665000Y-114300000D02*
X111760000Y-112395000D01*
X107950000Y-109220000D02*
X106045000Y-109220000D01*
X106045000Y-109220000D02*
X102141020Y-113123980D01*
X102141020Y-113123980D02*
X102141020Y-114300000D01*
X126365000Y-100330000D02*
X125095000Y-101600000D01*
X125095000Y-101600000D02*
X115570000Y-101600000D01*
X136293860Y-113731040D02*
X130030220Y-113731040D01*
X130030220Y-113731040D02*
X129540000Y-113240820D01*
X129540000Y-113240820D02*
X127210820Y-113240820D01*
X126365000Y-112395000D02*
X126365000Y-100330000D01*
X127210820Y-113240820D02*
X126365000Y-112395000D01*
X124460000Y-93980000D02*
X124460000Y-98425000D01*
X126365000Y-100330000D02*
X128270000Y-100330000D01*
X124460000Y-98425000D02*
X126365000Y-100330000D01*
X87630000Y-111760000D02*
X87630000Y-107950000D01*
X107950000Y-106680000D02*
X106680000Y-106680000D01*
X77470000Y-110490000D02*
X77470000Y-108585000D01*
X78740000Y-111760000D02*
X77470000Y-110490000D01*
X90170000Y-111760000D02*
X87630000Y-111760000D01*
X87630000Y-111760000D02*
X78740000Y-111760000D01*
X93345000Y-108585000D02*
X90170000Y-111760000D01*
X104775000Y-108585000D02*
X93345000Y-108585000D01*
X106680000Y-106680000D02*
X104775000Y-108585000D01*
X77470000Y-108585000D02*
X77470000Y-107950000D01*
X82630000Y-107950000D02*
X82550000Y-107950000D01*
X82550000Y-107950000D02*
X81010000Y-106410000D01*
X81010000Y-106410000D02*
X81010000Y-100330000D01*
X79010000Y-100330000D02*
X81010000Y-100330000D01*
X77010000Y-100330000D02*
X75010000Y-100330000D01*
X75010000Y-100330000D02*
X72470000Y-102870000D01*
X72470000Y-102870000D02*
X72470000Y-107950000D01*
X133985000Y-109250480D02*
X135920480Y-109250480D01*
X136293860Y-109623860D02*
X136293860Y-112328960D01*
X135920480Y-109250480D02*
X136293860Y-109623860D01*
X129540000Y-107739180D02*
X130599180Y-107739180D01*
X132110480Y-109250480D02*
X133985000Y-109250480D01*
X130599180Y-107739180D02*
X132110480Y-109250480D01*
X124460000Y-83820000D02*
X130810000Y-90170000D01*
X59055000Y-101600000D02*
X57785000Y-102870000D01*
X57785000Y-102870000D02*
X57785000Y-104900000D01*
X83010000Y-100330000D02*
X83010000Y-98250000D01*
X57785000Y-100330000D02*
X57785000Y-98300000D01*
X59055000Y-101600000D02*
X57785000Y-100330000D01*
X69215000Y-101600000D02*
X59055000Y-101600000D01*
X73660000Y-97155000D02*
X69215000Y-101600000D01*
X81915000Y-97155000D02*
X73660000Y-97155000D01*
X83010000Y-98250000D02*
X81915000Y-97155000D01*
X57785000Y-104900000D02*
X57785000Y-106680000D01*
X57785000Y-106680000D02*
X59690000Y-108585000D01*
X59690000Y-108585000D02*
X59690000Y-111760000D01*
X65285000Y-99350000D02*
X65285000Y-96640000D01*
X85010000Y-96440000D02*
X85010000Y-100330000D01*
X83820000Y-95250000D02*
X85010000Y-96440000D01*
X66675000Y-95250000D02*
X83820000Y-95250000D01*
X65285000Y-96640000D02*
X66675000Y-95250000D01*
X138430000Y-93980000D02*
X138430000Y-97930000D01*
X138430000Y-97930000D02*
X140000000Y-99500000D01*
X140000000Y-102500000D02*
X141235000Y-102500000D01*
X139296140Y-110893860D02*
X139296140Y-113030000D01*
X141605000Y-108585000D02*
X139296140Y-110893860D01*
X141605000Y-102870000D02*
X141605000Y-108585000D01*
X141235000Y-102500000D02*
X141605000Y-102870000D01*
X106138980Y-114300000D02*
X106138980Y-117475000D01*
X106138980Y-117475000D02*
X106045000Y-117475000D01*
X115570000Y-104140000D02*
X122555000Y-104140000D01*
X96520000Y-116205000D02*
X96520000Y-111760000D01*
X97790000Y-117475000D02*
X96520000Y-116205000D01*
X122555000Y-117475000D02*
X106045000Y-117475000D01*
X106045000Y-117475000D02*
X97790000Y-117475000D01*
X123825000Y-116205000D02*
X122555000Y-117475000D01*
X123825000Y-105410000D02*
X123825000Y-116205000D01*
X122555000Y-104140000D02*
X123825000Y-105410000D01*
M02*
