M48
;DRILL file {KiCad 4.0.6} date Mon Jul 17 13:21:23 2017
;FORMAT={-:-/ absolute / metric / decimal}
FMAT,2
METRIC,TZ
T1C0.798
T2C0.800
T3C0.900
T4C1.000
T5C1.500
T6C2.500
%
G90
G05
M71
T1
X102.141Y-114.3
X106.139Y-114.3
T2
X72.47Y-107.95
X75.01Y-100.33
X77.01Y-100.33
X77.47Y-107.95
X79.01Y-100.33
X81.01Y-100.33
X82.63Y-107.95
X83.01Y-100.33
X85.01Y-100.33
X87.63Y-107.95
X96.52Y-101.6
X96.52Y-111.76
X102.87Y-101.6
X102.87Y-106.68
X107.95Y-101.6
X107.95Y-104.14
X107.95Y-106.68
X107.95Y-109.22
X115.57Y-101.6
X115.57Y-104.14
X115.57Y-106.68
X115.57Y-109.22
X115.57Y-114.3
X120.65Y-106.68
X120.65Y-109.22
X120.65Y-114.3
X124.46Y-83.82
X124.46Y-93.98
X128.27Y-100.33
X130.81Y-90.17
X130.81Y-92.71
X130.81Y-100.33
T3
X59.69Y-111.76
X62.23Y-111.76
X138.43Y-91.44
X138.43Y-93.98
T4
X140.Y-99.5
X140.Y-102.5
X140.Y-105.5
T5
X57.785Y-98.3
X57.785Y-104.9
X65.285Y-99.35
X65.285Y-103.85
T6
X74.01Y-89.33
X86.01Y-89.33
T0
M30
